<?xml version="1.0" encoding="UTF-8" standalone="no"?>
<!-- Created with Inkscape (http://www.inkscape.org/) -->

<svg
   xmlns:dc="http://purl.org/dc/elements/1.1/"
   xmlns:cc="http://creativecommons.org/ns#"
   xmlns:rdf="http://www.w3.org/1999/02/22-rdf-syntax-ns#"
   xmlns:svg="http://www.w3.org/2000/svg"
   xmlns="http://www.w3.org/2000/svg"
   xmlns:sodipodi="http://sodipodi.sourceforge.net/DTD/sodipodi-0.dtd"
   xmlns:inkscape="http://www.inkscape.org/namespaces/inkscape"
   width="776.32019"
   height="348.29044"
   id="svg3302"
   version="1.1"
   inkscape:version="0.48.2 r9819"
   sodipodi:docname="immutable2.svg">
  <defs
     id="defs3304" />
  <sodipodi:namedview
     id="base"
     pagecolor="#ffffff"
     bordercolor="#666666"
     borderopacity="1.0"
     inkscape:pageopacity="0.0"
     inkscape:pageshadow="2"
     inkscape:zoom="0.35"
     inkscape:cx="383.27998"
     inkscape:cy="-50.500023"
     inkscape:document-units="px"
     inkscape:current-layer="layer1"
     showgrid="false"
     inkscape:window-width="1440"
     inkscape:window-height="852"
     inkscape:window-x="0"
     inkscape:window-y="0"
     inkscape:window-maximized="1"
     fit-margin-top="0"
     fit-margin-left="0"
     fit-margin-right="0"
     fit-margin-bottom="0" />
  <metadata
     id="metadata3307">
    <rdf:RDF>
      <cc:Work
         rdf:about="">
        <dc:format>image/svg+xml</dc:format>
        <dc:type
           rdf:resource="http://purl.org/dc/dcmitype/StillImage" />
        <dc:title />
      </cc:Work>
    </rdf:RDF>
  </metadata>
  <g
     inkscape:label="Layer 1"
     inkscape:groupmode="layer"
     id="layer1"
     transform="translate(8.2799772,-133.57171)">
    <path
       style="fill:#000000"
       d="m 490.7388,477.83371 c -4.54366,-2.18435 -8.60363,-3.97154 -9.02215,-3.97154 -0.41852,0 -2.46324,-1.40317 -4.54382,-3.11816 -2.9058,-2.3952 -3.71214,-3.72636 -3.47784,-5.74145 0.42228,-3.63175 2.6518,-3.71276 7.76012,-0.28199 3.32136,2.23066 4.65433,2.65535 5.60093,1.78447 0.68324,-0.62858 1.07667,-1.31634 0.87428,-1.52836 -0.63689,-0.66723 7.41219,-11.55482 11.47606,-15.52308 l 3.8903,-3.79877 -2.51586,-4.84921 c -1.38373,-2.66707 -2.74782,-6.90715 -3.03133,-9.42241 -0.53894,-4.78144 1.21582,-18.01677 2.9758,-22.44515 0.56306,-1.41674 1.33789,-3.47589 1.72185,-4.57589 5.29959,-15.18278 12.85946,-21.62715 31.05287,-26.47082 7.10679,-1.89206 9.87488,-2.15147 16.88816,-1.5827 4.61348,0.37415 10.17067,1.3935 12.34931,2.26521 4.67958,1.8724 4.61979,1.93558 7.24836,-7.65997 1.89163,-6.90535 1.99964,-7.05172 5.2039,-7.05172 2.62255,0 3.39209,0.47782 3.87625,2.40686 0.33224,1.32377 0.095,3.35807 -0.52719,4.52067 -0.6222,1.16259 -0.83703,2.58991 -0.4774,3.17181 0.60706,0.98224 25.16172,-23.70777 28.33641,-28.4926 0.76879,-1.15871 3.16819,-3.96137 5.332,-6.22815 l 3.93421,-4.12141 -2.65402,-5.23747 c -4.17754,-8.24398 -4.78714,-20.21919 -1.80813,-35.51971 2.6529,-13.62559 3.66949,-16.59944 7.04616,-20.61239 1.31742,-1.56567 2.16442,-3.22027 1.88221,-3.6769 -0.28221,-0.45662 -5.37696,-2.99215 -11.32167,-5.63451 -15.40549,-6.84756 -15.14605,-6.71032 -15.77278,-8.34354 -1.03583,-2.69933 1.50258,-4.44779 5.40009,-3.7196 1.96027,0.36625 4.05553,1.07174 4.65614,1.56775 0.6006,0.49601 1.3881,0.60574 1.75,0.24385 0.36189,-0.3619 0.65799,-0.13299 0.65799,0.50867 0,0.64167 0.9375,1.16667 2.08333,1.16667 1.14584,0 1.93081,-0.45759 1.74438,-1.01687 -0.18643,-0.55928 -6.82132,-7.75928 -14.7442,-16 -12.7917,-13.30486 -17.08351,-16.86515 -17.08351,-14.17169 0,0.9415 -2.30143,3.44294 -7.09995,7.71699 -3.58842,3.19621 -11.53704,6.2373 -18.67025,7.14314 -8.70651,1.10563 -27.41929,-5.11429 -36.90804,-12.26782 -2.86164,-2.15738 -6.32176,-2.40954 -6.32176,-0.46069 0,0.401 -1.88602,0.80297 -4.19116,0.8933 -2.30514,0.0903 -4.44264,0.5016 -4.75,0.91393 -0.30736,0.41235 -2.35884,0.90913 -4.55884,1.10399 -2.2,0.19484 -4.225,0.64484 -4.5,1 -0.275,0.35514 -0.95,0.65961 -1.5,0.6766 -2.82069,0.0871 -8.20724,1.87451 -9.75,3.23541 -0.9625,0.84902 -1.75,1.24291 -1.75,0.87529 0,-0.36763 -1.4625,-0.0583 -3.25,0.6873 -1.7875,0.74563 -5.6125,1.92156 -8.5,2.61316 -2.8875,0.6916 -5.25,1.68912 -5.25,2.21672 0,0.52761 -0.45573,0.67762 -1.01274,0.33337 -0.557,-0.34424 -2.42614,0.0792 -4.15363,0.94099 -1.7275,0.86179 -3.73729,1.56689 -4.46621,1.56689 -2.42146,0 -28.85588,9.35276 -30.76553,10.88516 -0.60604,0.48631 -4.70189,1.80093 -9.10189,2.92138 -10.3937,2.64672 -18.86261,5.39951 -19.53081,6.3484 -0.29195,0.41458 -1.41695,0.72125 -2.5,0.6815 -2.39022,-0.0877 -21.01884,5.51934 -26.80319,8.06756 -2.2913,1.00941 -5.2823,1.87381 -6.64668,1.92088 -1.36437,0.0471 -2.93937,0.70772 -3.5,1.46812 -0.56062,0.7604 -1.46932,1.23227 -2.01932,1.04861 -1.38464,-0.46238 -23.60885,5.21621 -22.95878,5.86627 0.28908,0.28908 -1.81728,0.83639 -4.68079,1.21625 -2.86351,0.37984 -6.12195,1.18064 -7.24098,1.77954 -1.11904,0.59888 -3.2912,1.05316 -4.82703,1.00948 -1.53583,-0.0437 -2.79242,0.26551 -2.79242,0.68707 0,0.42154 -0.5625,0.82292 -1.25,0.89195 -1.73854,0.17458 -12.21064,2.64959 -13.75,3.24973 -0.275,0.10722 -0.8375,0.14164 -1.25,0.0765 -0.4125,-0.0651 -0.75,0.33158 -0.75,0.88158 0,0.55 -1.14967,1 -2.55481,1 -1.40515,0 -5.71012,1.34271 -9.56661,2.98379 -3.85649,1.64108 -8.5007,3.14787 -10.32047,3.3484 -1.81976,0.20053 -5.70314,1.55783 -8.62973,3.01621 -2.92659,1.45838 -6.47021,2.67515 -7.87472,2.70392 -1.40451,0.0288 -5.68358,1.32004 -9.50904,2.86946 l -6.95539,2.81712 9.38619,9.13055 c 5.1624,5.0218 9.82982,9.13055 10.37205,9.13055 0.54222,0 0.75124,0.23462 0.46448,0.52138 -0.71537,0.71538 8.84813,10.47862 10.26424,10.47862 0.65031,0 0.86424,-0.71285 0.49932,-1.66382 -2.19477,-5.71949 -2.76926,-18.42127 -0.86239,-19.06728 0.66721,-0.22604 1.41503,0.63349 1.66181,1.91006 1.92913,9.97915 4.08221,18.98553 4.61786,19.31658 0.35379,0.21866 3.31265,-0.91159 6.57523,-2.51167 16.78523,-8.23199 32.83834,-7.59246 45.2032,1.80081 3.58039,2.71993 11.67094,12.64586 14.89947,18.27948 2.94539,5.13955 6.0954,15.49259 6.82631,22.43584 1.32946,12.62911 -2.86619,37.3499 -7.23426,42.62429 -1.1563,1.39622 -0.95562,2.09828 1.42924,5 1.52593,1.85664 3.4417,3.78998 4.25727,4.29631 0.81557,0.50633 2.49374,1.93148 3.72925,3.16699 1.23552,1.23552 3.23278,2.93729 4.43836,3.78171 2.09704,1.46882 2.3046,1.35334 4.79325,-2.667 1.4307,-2.31126 3.23726,-5.4398 4.01457,-6.9523 1.54401,-3.00438 4.78429,-3.67198 5.73958,-1.18254 0.33082,0.8621 -0.0124,2.7746 -0.76261,4.25 -2.131,4.19066 -6.32289,10.64754 -7.15165,11.01587 -0.4125,0.18334 -0.75,1.03615 -0.75,1.89515 0,1.79862 -5.13699,10.26705 -6.22968,10.26973 -0.40132,9.9e-4 -1.61965,1.74629 -2.7074,3.87846 -2.17015,4.25385 -4.21132,5.57493 -5.94106,3.84519 -1.95135,-1.95135 -1.24597,-4.15113 3.36155,-10.48322 2.46588,-3.38884 4.25804,-6.74885 3.98257,-7.46669 -0.27546,-0.71785 -2.8555,-3.3227 -5.73341,-5.78856 -2.87791,-2.46587 -6.6631,-5.94403 -8.41153,-7.72927 -2.00539,-2.0476 -3.75894,-3.02331 -4.75,-2.64301 -0.86407,0.33158 -1.57104,0.9327 -1.57104,1.33582 0,0.40312 -1.9125,1.33603 -4.25,2.07314 -2.3375,0.7371 -4.8233,1.77319 -5.524,2.30242 -0.70956,0.53592 -4.08449,0.69979 -7.61751,0.36987 -6.36139,-0.59403 -15.4644,-3.90596 -32.45562,-11.80825 -4.59092,-2.13515 -8.86051,-3.5648 -9.48797,-3.177 -2.54116,1.57052 -14.6649,18.4565 -14.6649,20.42531 0,0.47717 -0.45,0.86758 -1,0.86758 -0.55,0 -1,0.84511 -1,1.87803 0,1.03292 -0.97883,2.52795 -2.17518,3.3223 -2.99166,1.98639 -1.96052,3.97757 4.1218,7.9594 5.09575,3.33596 7.04448,6.24918 5.32828,7.96537 -0.56504,0.56505 -2.44824,-0.11245 -4.84934,-1.74455 -2.15906,-1.46758 -7.82746,-5.08382 -12.59645,-8.03607 -8.64498,-5.35169 -14.35006,-10.69254 -13.27678,-12.42914 1.08384,-1.75369 3.6569,-0.89209 7.7187,2.58467 2.24893,1.925 4.47172,3.5 4.93952,3.5 1.74902,0 10.08093,-10.56438 14.98492,-19 1.43882,-2.475 3.7829,-5.85 5.20906,-7.5 1.42617,-1.65 2.59336,-3.225 2.59376,-3.5 4e-4,-0.275 -2.30823,-2.48845 -5.13029,-4.91876 -7.30148,-6.28794 -10.77244,-14.03049 -11.02523,-24.59357 -0.29885,-12.48814 4.79869,-30.13826 10.08627,-34.92346 2.565,-2.32128 2.62451,-3.79716 0.20472,-5.07708 -9.42155,-4.98343 -11.97059,-6.61954 -12.51221,-8.03098 -1.23879,-3.22823 2.02071,-4.79705 4.28876,-2.06421 1.24525,1.50043 5.10368,2.84377 5.06797,1.76444 -0.0119,-0.36101 -5.57775,-6.39388 -12.36845,-13.40638 -7.75374,-8.00699 -13.09424,-12.75 -14.35616,-12.75 -2.11581,0 -6.37013,1.58853 -14.90797,5.56652 -2.83486,1.32084 -9.13486,3.99418 -14,5.94077 -4.86513,1.94658 -10.6457,4.40862 -12.8457,5.47121 -2.2,1.06259 -5.4625,2.51197 -7.25,3.22085 -1.7875,0.70888 -3.25,1.65558 -3.25,2.10378 0,0.4482 -0.42234,0.55388 -0.93854,0.23485 -0.5162,-0.31902 -1.3037,0.0462 -1.75,0.81168 -0.4463,0.76545 -4.04178,2.80206 -7.98995,4.5258 -11.49897,5.02038 -28.22532,15.80588 -34.25545,22.08863 -1.33867,1.39475 -2.57145,2.43572 -2.73951,2.31327 -0.88675,-0.64614 -3.21906,1.08754 -2.6663,1.98192 0.37039,0.59931 0.17084,0.75435 -0.46506,0.36134 -1.11841,-0.69121 -4.44223,0.79902 -6.97645,3.12787 -0.74723,0.68667 -2.45213,1.52296 -3.78867,1.85841 -1.33654,0.33545 -2.43007,1.18386 -2.43007,1.88535 0,1.3074 9.97315,5.84107 12.84915,5.84107 3.54383,0 6.7427,6.84184 3.73796,7.99487 -1.59437,0.61182 -12.90657,-3.16045 -13.42044,-4.4753 -0.18334,-0.46909 -0.99318,-0.8529 -1.79966,-0.8529 -0.80648,0 -2.84351,-0.71217 -4.52673,-1.5826 -1.68323,-0.87042 -2.75932,-1.09542 -2.39133,-0.5 0.368,0.59543 0.16597,1.0826 -0.44895,1.0826 -0.61492,0 -0.84514,0.44155 -0.51161,0.98122 0.33354,0.53967 0.071,3.80217 -0.58333,7.25 -0.65437,3.44783 -1.15294,7.06601 -1.10793,8.04039 0.045,0.9744 -0.34094,1.51033 -0.85765,1.19099 -0.51671,-0.31935 -0.93948,0.15234 -0.93948,1.04821 0,0.89586 -1.35,3.591 -3,5.98919 -1.649997,2.39819 -2.999997,4.64844 -2.999997,5.00056 0,0.88255 17.068687,16.43583 18.081587,16.47624 0.31987,0.0128 2.09569,-2.33929 3.94627,-5.2268 4.20409,-6.55976 6.8035,-8.91854 9.41452,-8.543 2.63152,0.37848 3.23679,3.44267 0.83086,4.20628 -1.01228,0.32128 -2.69148,2.04723 -3.73156,3.83544 -1.04008,1.7882 -2.20235,3.47628 -2.58281,3.75128 -0.38047,0.275 -3.27376,4.66492 -6.42952,9.75539 -3.15577,5.09046 -6.14087,9.50452 -6.63356,9.80901 -0.49268,0.3045 -0.89579,1.68337 -0.89579,3.06417 0,2.02857 -0.42999,2.44919 -2.23978,2.19098 -3.54934,-0.50638 -3.21943,-3.35642 1.16532,-10.06709 2.24095,-3.42968 4.07446,-6.75541 4.07446,-7.39053 0,-1.33336 -7.56588,-8.10118 -14.749997,-13.19413 -1.7875,-1.26719 -3.25,-2.99942 -3.25,-3.84939 0,-1.20196 -0.72227,-1.40988 -3.25,-0.93558 -1.7875,0.3354 -4.9375,0.89572 -7,1.24516 -2.0625,0.34944 -3.75,0.98132 -3.75,1.40418 0,0.42286 -4.1625,1.05995 -9.25,1.41576 -14.948941,1.04549 -22.747874,1.11154 -22.748972,0.19266 -5.66e-4,-0.47267 -1.688528,-0.65069 -3.751028,-0.39559 -2.378816,0.29422 -6.309543,-0.39453 -10.75,-1.88362 -8.445464,-2.83217 -7.681475,-2.80587 -10.5,-0.36138 -1.268311,1.1 -2.033652,2 -1.700759,2 0.332894,0 -0.498252,1.19071 -1.84699,2.64602 -1.348738,1.45532 -2.456619,3.14282 -2.461957,3.75 -0.0053,0.60719 -1.563266,3.05825 -3.462062,5.44678 -1.898796,2.38853 -3.726827,5.20756 -4.062291,6.26452 -0.335463,1.05694 -0.980382,1.69278 -1.433153,1.41295 -0.45277,-0.27982 -1.075484,0.14862 -1.383808,0.9521 -0.33806,0.88096 0.362256,1.97032 1.764216,2.74426 1.278643,0.70585 4.296255,2.34831 6.705805,3.64989 4.907615,2.65097 7.880999,5.02352 7.880999,6.28847 0,1.51835 -5.43027,0.74328 -8.5,-1.21323 -1.65,-1.05164 -4.106854,-2.39348 -5.459676,-2.98188 -10.168013,-4.42249 -19.099979,-12.75608 -17.668957,-16.48526 0.963051,-2.50966 3.336418,-1.63506 5.496132,2.02538 1.135778,1.925 2.666952,3.5 3.402609,3.5 2.204549,0 7.224649,-5.93065 13.529034,-15.98293 l 5.947309,-9.48293 -2.290251,-3.01707 c -6.564257,-8.64744 -9.064927,-24.61989 -5.541861,-35.39734 1.147114,-3.50915 2.085661,-6.85458 2.085661,-7.43428 0,-1.08831 2.607222,-7.01294 6.353973,-14.43871 1.180315,-2.33929 3.359085,-5.55124 4.841712,-7.13765 1.482626,-1.58641 2.533021,-3.04745 2.334212,-3.24674 -0.19881,-0.19929 2.779775,-2.82611 6.619077,-5.83736 9.44915,-7.4112 17.281669,-10.30008 25.807624,-9.51869 7.077,0.64859 9.378612,1.86217 8.540412,4.50313 -0.358004,1.12797 0.315722,2.29307 1.94224,3.35881 1.36971,0.89747 2.75102,1.63177 3.06957,1.63177 0.31856,0 0.35514,-2.1375 0.0813,-4.75 -1.12636,-10.74574 -1.01873,-14.36681 0.45473,-15.29888 0.80033,-0.50628 1.72042,-0.92739 2.04463,-0.93581 1.24592,-0.0324 2.67876,4.7462 2.18992,7.30343 -0.65046,3.40265 1.45047,3.60571 2.29966,0.22228 0.33944,-1.35244 1.25632,-2.98944 2.03751,-3.63776 0.78119,-0.64833 2.17822,-2.80429 3.10451,-4.79102 1.39462,-2.9912 6.01268,-9.63582 12.60111,-18.13091 2.813147,-3.62727 8.678467,-13.04912 11.107897,-17.84337 1.45102,-2.86344 3.4941,-6.06215 4.54017,-7.10822 1.86928,-1.86928 1.81737,-1.99327 -3.0212,-7.21585 -8.22252,-8.8751 -12.689277,-19.75321 -13.639407,-33.2167 -1.37904,-19.54121 6.283097,-35.65272 22.145557,-46.56638 2.42283,-1.66695 4.73159,-3.03082 5.13057,-3.03082 0.39899,0 2.20039,-1.125 4.00311,-2.5 1.80272,-1.375 3.90769,-2.5 4.67772,-2.5 0.77003,0 1.70846,-0.3084 2.08539,-0.68533 1.59512,-1.59511 8.64483,-3.42732 15.35757,-3.9914 10.33804,-0.86872 18.43494,1.73211 18.87304,6.06227 0.062,0.61296 0.1813,1.61848 0.26508,2.2345 0.0838,0.61602 2.28981,1.67025 4.90231,2.34273 2.6125,0.67248 5.65,1.60998 6.75,2.08333 17.97062,7.73309 19.93059,9.25994 24.96457,19.44795 6.25403,12.65715 7.9296,24.42579 5.41114,38.00595 -0.61199,3.3 -1.10699,7.0125 -1.1,8.25 0.007,1.2375 -0.35013,2.25 -0.7936,2.25 -0.44347,0 -1.12389,1.9125 -1.51204,4.25 -0.54693,3.29371 -4.63089,13.41147 -7.18278,17.79487 -0.17446,0.29967 1.13818,2.03346 2.91698,3.85286 1.7788,1.8194 4.25191,4.68746 5.49581,6.37346 1.24389,1.68601 6.42631,7.31226 11.51648,12.50279 l 9.25486,9.43733 10.01429,-3.27151 c 5.50786,-1.79933 11.58929,-4.0289 13.51429,-4.9546 1.925,-0.92571 5.975,-2.49303 9,-3.48295 3.025,-0.98992 8.425,-2.81777 12,-4.0619 9.51694,-3.31197 20.65094,-6.50274 47,-13.4692 12.925,-3.41726 24.4,-6.58125 25.5,-7.03108 2.67644,-1.09451 17.56357,-5.93735 30.5,-9.92177 5.775,-1.77869 13.65,-4.277 17.5,-5.55178 3.85,-1.27479 10.56696,-3.29707 14.92657,-4.49396 4.35962,-1.19688 8.63462,-2.57147 9.5,-3.05463 3.10578,-1.734 19.79854,-7.75137 31.57343,-11.38151 6.6,-2.03475 16.725,-5.52155 22.5,-7.74845 12.09933,-4.66561 19.55324,-6.7971 26.17616,-7.4852 l 4.67616,-0.48584 -2.65285,-2.97737 c -2.90014,-3.25491 -8.17563,-13.38015 -8.23951,-15.8141 -0.0233,-0.88899 -0.63598,-0.4287 -1.46835,1.10319 -1.58496,2.91693 -10.19107,7.86282 -13.7232,7.88666 -1.6345,0.011 -1.8934,0.25301 -0.92646,0.86585 0.98103,0.62178 0.65003,0.9828 -1.23073,1.34233 -2.88289,0.5511 -6.61122,-1.57909 -6.61122,-3.77733 0,-0.79223 1.4625,-2.12029 3.25,-2.95123 3.01957,-1.40371 2.29283,-1.46654 -10.25,-0.88614 -28.48902,1.31828 -33.37819,1.28205 -35.81127,-0.2653 -1.50035,-0.95417 -2.20206,-2.23714 -2,-3.65668 0.30241,-2.12457 0.69553,-2.18738 13.81127,-2.20672 15.87293,-0.0234 34,-1.41172 34,-2.60398 0,-0.46091 -1.08233,-1.10964 -2.40517,-1.44166 -3.43101,-0.86113 -6.80179,-4.73155 -5.98178,-6.86844 0.5283,-1.37673 1.53653,-1.65359 4.77827,-1.31211 5.00222,0.52693 17.13266,5.02462 20.74565,7.69202 3.10135,2.28966 3.86664,1.82039 3.85291,-2.36258 -0.0117,-3.57712 3.9908,-15.58334 5.19505,-15.58334 0.44829,0 0.81507,-0.8449 0.81507,-1.87755 0,-1.03266 0.675,-2.43776 1.5,-3.12245 0.825,-0.68468 1.5,-1.79504 1.5,-2.46745 0,-0.67241 0.9,-2.03706 2,-3.03255 1.1,-0.99548 2,-2.2547 2,-2.79827 0,-1.59043 13.75908,-14.46517 19.88165,-18.6038 3.09009,-2.08879 8.09335,-4.59814 11.11835,-5.57634 3.025,-0.9782 6.28688,-2.46491 7.24862,-3.3038 3.61633,-3.1544 20.98396,-1.06401 29.25138,3.52074 8.37697,4.6455 20.41847,16.07248 20.47294,19.42814 0.0149,0.91667 0.48267,1.81854 1.03952,2.00415 0.55685,0.18562 1.06587,2.70804 1.13114,5.60537 0.0653,2.89734 0.49366,5.49963 0.95197,5.78288 0.96981,0.59937 0.35208,8.06477 -1.11954,13.52997 -0.56027,2.08067 -0.93958,4.14932 -0.84291,4.597 0.18565,0.85972 -2.46278,7.53858 -4.22763,10.66135 -0.57424,1.01605 -0.79075,2.10068 -0.48114,2.4103 0.30961,0.30961 -0.27785,1.15183 -1.30546,1.8716 -1.02761,0.71977 -2.62308,3.61601 -3.54548,6.43609 -1.89061,5.7802 -1.67546,6.39492 4.55573,13.01688 21.84434,23.21423 27.45029,28.91774 28.42312,28.91774 0.62794,0 2.17943,0.90001 3.44774,2 1.26831,1.1 2.68717,2 3.15301,2 1.38641,0 0.90942,-4.13691 -1.15301,-10 -1.06409,-3.025 -1.9494,-6.54208 -1.96735,-7.81574 -0.0436,-3.09484 -1.88656,-6.39258 -3.13966,-5.61812 -1.66188,1.02709 -5.89299,-0.49258 -5.89299,-2.11658 0,-2.08968 2.70814,-2.93667 4.5369,-1.41893 0.83129,0.6899 1.61306,1.07775 1.73727,0.86188 0.1242,-0.21587 0.72179,-1.29251 1.32796,-2.39251 2.37336,-4.30688 9.09133,-2.39912 7.92439,2.25036 -0.6126,2.44079 0.20105,5.79534 3.58224,14.76897 1.04018,2.76063 1.89124,6.02313 1.89124,7.25 0,2.63042 0.20022,2.65426 5.82844,0.69401 2.38065,-0.82915 8.09663,-1.88949 12.70218,-2.35631 6.84739,-0.69405 8.94326,-1.32799 11.49828,-3.47789 3.53181,-2.97183 8.93628,-3.5211 11.3081,-1.14928 0.8994,0.8994 5.144,1.89221 10.82143,2.53112 6.55923,0.73815 11.12864,1.90044 15.34157,3.90232 6.04907,2.87439 15.72601,9.51128 18.5,12.68816 0.825,0.94482 2.9625,3.38805 4.75,5.4294 1.7875,2.04135 3.25,4.41794 3.25,5.28132 0,0.86338 0.45,1.8479 1,2.18782 0.55,0.33992 1.00689,2.05398 1.01531,3.80902 0.008,1.75504 0.34592,2.67301 0.75,2.03994 0.40408,-0.63307 0.80058,0.99693 0.88112,3.62222 0.0805,2.62529 0.6456,5.70597 1.2557,6.84595 1.54147,2.88027 0.53994,17.85924 -1.39118,20.8065 -0.83102,1.2683 -1.51095,3.03836 -1.51095,3.93346 0,0.8951 -0.87486,2.73965 -1.94412,4.099 -1.07961,1.3725 -1.67106,3.18315 -1.33007,4.07178 0.40798,1.06317 0.22142,1.35755 -0.55587,0.87716 -0.64347,-0.39769 -1.16994,-0.29173 -1.16994,0.23546 0,1.50911 -6.93786,11.42768 -9.00738,12.87723 -1.74767,1.22412 -2.50559,5.71735 -0.78503,4.65398 0.43582,-0.26935 0.79241,-0.096 0.79241,0.38514 0,0.48118 1.73588,1.8505 3.85751,3.04292 3.79444,2.13259 13.61016,11.93197 16.74647,16.71859 1.8889,2.88282 3.23664,2.4335 10.39602,-3.46588 5.38266,-4.43534 13.12591,-9.06485 15.08786,-9.02067 2.36428,0.0533 4.98661,2.61055 4.35766,4.24959 -0.32408,0.84452 -1.9069,2.08129 -3.51738,2.74837 -1.61047,0.66709 -2.92814,1.53742 -2.92814,1.9341 0,0.39666 -1.575,1.56939 -3.5,2.60608 -1.925,1.03668 -3.5,2.1302 -3.5,2.43007 0,0.29986 -1.575,1.39339 -3.5,2.43007 -3.68866,1.98647 -3.80232,2.21913 -3.53239,7.23066 0.13436,2.4946 -0.31847,3.32532 -2.14868,3.94165 -1.27541,0.4295 -3.00894,0.6829 -3.85229,0.56311 -2.03968,-0.28973 -5.96664,3.45472 -5.96664,5.68931 0,2.00898 -6.6305,6.14519 -9.85097,6.14519 -1.14326,0 -2.48369,-0.7875 -2.97872,-1.75 -1.45094,-2.82109 -1.09718,-3.40352 8.27592,-13.62569 4.09965,-4.47102 4.13685,-4.62369 1.80377,-7.40301 -0.9625,-1.14659 -3.54287,-4.21836 -5.73415,-6.82615 -6.14214,-7.30962 -19.53231,-15.31652 -21.37318,-12.7805 -1.02381,1.41042 -8.27179,5.11725 -13.15845,6.72963 -7.97623,2.63179 -21.49084,3.89591 -27.83082,2.60321 -3.10937,-0.63398 -6.5534,-1.54104 -7.6534,-2.01567 -1.1,-0.47464 -4.87391,-1.5817 -8.38647,-2.46014 -3.51256,-0.87844 -8.81558,-2.89341 -11.78449,-4.47771 -5.10124,-2.72217 -13.11142,-8.43387 -14.43372,-10.29202 -0.33258,-0.46735 -1.23258,-0.25398 -2,0.47416 -0.76743,0.72814 -3.08282,2.58429 -5.14532,4.12478 -2.0625,1.54049 -3.75,3.28771 -3.75,3.88271 0,0.59499 -1.0125,1.95402 -2.25,3.02005 -10.95663,9.43847 -29.35048,29.86253 -28.05807,31.15495 0.35277,0.35277 0.1164,0.6414 -0.52526,0.6414 -0.64167,0 -1.16667,0.675 -1.16667,1.5 0,2.03006 0.72831,1.93751 10.77895,-1.36969 12.08071,-3.97519 14.74483,-4.45554 17.2564,-3.11139 l 2.15265,1.15206 -2.21685,2.35973 c -1.21926,1.29785 -4.07406,2.7838 -6.344,3.30211 -3.29561,0.75252 -12.93889,3.95689 -14.45219,4.80233 -0.64803,0.36204 -0.87622,3.87756 -0.28332,4.36485 1.05939,0.87069 3.09676,4.37891 4.64595,8 0.82356,1.925 2.16252,4.85 2.97546,6.5 1.69832,3.447 5.1882,14.0405 5.60042,17 0.58802,4.22166 -1.41442,10.03068 -4.94144,14.33494 -2.2523,2.74865 -3.5416,5.28823 -3.33662,6.57232 0.4232,2.6511 6.04697,8.59274 8.13304,8.59274 0.86686,0 4.38629,-3.36743 7.82095,-7.48317 7.06189,-8.46224 11.11503,-11.17353 14.21963,-9.512 2.725,1.45838 2.51212,2.52194 -1.14839,5.73746 -1.72665,1.51675 -3.71951,3.32021 -4.42857,4.00771 -0.70907,0.6875 -1.71887,1.25 -2.24401,1.25 -0.52514,0 -1.22416,0.7875 -1.55338,1.75 -2.55266,7.46288 -19.5849,27.25 -23.45609,27.25 -3.3851,0 -3.85209,-3.8576 -0.78594,-6.49227 1.43404,-1.23223 2.60735,-2.50512 2.60735,-2.82862 0,-0.32351 1.125,-1.7132 2.5,-3.0882 2.49781,-2.49781 3.35109,-5.59091 1.54234,-5.59091 -0.52672,0 -3.38849,-2.48973 -6.35949,-5.53274 l -5.40182,-5.53275 -6.89052,3.28275 -6.89051,3.28274 -16,0 c -14.8774,0 -16.59638,-0.19795 -24.5,-2.82131 -4.675,-1.55172 -10.4076,-3.68921 -12.7391,-4.75 -2.33151,-1.06078 -4.82972,-1.92869 -5.55159,-1.92869 -2.80101,0 -10.77437,9.19985 -13.24674,15.28439 -2.70726,6.6626 -2.86084,6.26044 3.71958,9.74 4.61177,2.43859 5.34051,3.5958 3.45304,5.48328 -2.22546,2.22546 -4.31439,1.83 -13.3964,-2.53613 z m 75.76121,-25.36761 c 12.9199,-3.94607 24.32092,-12.46718 25.56686,-19.10865 0.63431,-3.38114 -5.04859,-22.10546 -8.3041,-27.36077 -3.95102,-6.37807 -5.27542,-7.20172 -10.47174,-6.5124 -6.3426,0.84138 -8.95474,-1.22055 -8.62504,-6.80829 0.12405,-2.10227 -0.20006,-4.20898 -0.72022,-4.68158 -1.5834,-1.43861 -7.55064,-3.13224 -11.03597,-3.13224 -1.81046,0 -3.60171,-0.50152 -3.98055,-1.11448 -0.76745,-1.24177 -11.63566,-0.3806 -14.49253,1.14835 -0.91369,0.48899 -3.16733,1.15441 -5.00809,1.47871 -1.84077,0.32429 -3.9331,1.07617 -4.64963,1.67085 -0.71654,0.59467 -2.72178,1.80917 -4.45609,2.69889 -1.73431,0.88973 -3.91595,3.06818 -4.84809,4.84102 -0.93214,1.77284 -1.92068,2.99746 -2.19675,2.72138 -0.60604,-0.60604 -6.36197,13.83005 -7.19897,18.05528 -1.53678,7.75781 -1.4822,15.90191 0.12933,19.29796 2.52913,5.32975 14.09578,12.06451 16.53352,9.62677 0.3164,-0.3164 0.20454,-1.86795 -0.24858,-3.44789 -1.61514,-5.63165 4.75241,-6.23021 9.57603,-0.90017 1.67685,1.85291 1.81379,1.83958 6.32229,-0.615 3.83333,-2.08701 5.15301,-3.63178 7.84723,-9.1857 2.8581,-5.89176 3.07958,-6.91775 1.88369,-8.72637 -1.79563,-2.71566 -11.05565,-3.29233 -17.74317,-1.10495 -5.89297,1.92749 -5.60193,1.94239 -6.82843,-0.34935 -0.75176,-1.40468 -0.52746,-3.17668 0.85445,-6.75 1.03059,-2.66492 2.44892,-6.76815 3.15184,-9.11832 1.38465,-4.62951 4.68988,-6.51162 7.43473,-4.23359 1.15739,0.96054 2.99689,0.89117 8.73702,-0.32948 13.53703,-2.87868 17.12662,-3.03337 19.1259,-0.82419 1.52155,1.68129 1.59057,2.27467 0.47281,4.0645 -1.06828,1.71059 -2.30895,2.09579 -6.7502,2.09579 -5.98099,0 -20.44271,3.52482 -21.94433,5.34859 -0.68675,0.83407 0.33401,1.22782 3.70368,1.42865 10.17776,0.60658 18.1631,5.07682 18.1631,10.16778 0,6.44077 -12.81761,25.05497 -17.25267,25.05497 -0.96103,0 -1.74733,0.40787 -1.74733,0.90638 0,0.49851 -1.0125,0.64214 -2.25,0.31919 -2.22173,-0.57982 -2.2258,-0.56293 -0.32347,1.34362 3.1286,3.13556 23.64113,4.45749 31.57347,2.03474 z m -245.2391,-22.77888 c 7.53734,-3.45918 10.12552,-5.6674 12.77829,-10.90238 5.84509,-11.53475 7.69728,-36.67569 3.5853,-48.6657 -2.70913,-7.89948 -10.87509,-20.12425 -16.38864,-24.53444 -6.41177,-5.12867 -13.5503,-8.1281 -16.33012,-6.86153 -1.2422,0.56598 -5.55416,1.09896 -9.58214,1.18439 -5.52864,0.11726 -8.48327,0.74347 -12.05518,2.55497 -2.60238,1.3198 -5.33644,2.39964 -6.07569,2.39964 -0.73925,0 -2.40097,1.125 -3.69272,2.5 -1.29175,1.375 -2.95931,2.5 -3.7057,2.5 -0.74639,0 -1.60952,0.65787 -1.91807,1.46193 -0.30854,0.80407 -1.3964,1.72708 -2.41746,2.05116 -1.02106,0.32407 -2.14954,1.5126 -2.50773,2.64118 -0.3582,1.12859 -1.65093,3.52505 -2.87274,5.32548 -3.08485,4.5458 -5.96583,17.47679 -6.02001,27.02025 -0.04,7.04768 0.31093,8.65126 2.94814,13.47097 1.8366,3.35652 4.89605,6.90389 7.91608,9.17849 7.13186,5.37152 9.41324,5.64486 5.10497,0.61161 -1.90675,-2.22761 -3.24813,-4.40404 -2.98084,-4.83654 0.26729,-0.43248 0.0483,-1.05684 -0.48665,-1.38746 -0.53496,-0.3306 -0.78951,-1.1492 -0.56569,-1.81909 0.22383,-0.66988 0.90339,-3.15598 1.51013,-5.52464 0.60675,-2.36868 2.67108,-6.04216 4.5874,-8.1633 l 3.48423,-3.85662 -2.03429,-3.33671 c -2.44787,-4.01507 -2.57979,-8.1821 -0.45696,-14.43474 1.70289,-5.01575 2.23841,-5.85145 7.06519,-11.0254 2.57655,-2.76187 3.88783,-3.37657 7.20295,-3.37657 4.12655,0 9.14705,1.69666 9.14705,3.09121 0,0.42359 2.27608,2.93886 5.05796,5.58948 5.91872,5.63946 7.94204,9.0368 7.94204,13.33539 0,4.10894 -1.48186,6.80255 -5.87684,10.68248 -4.32409,3.81735 -3.56307,5.27216 2.98292,5.70236 2.41665,0.15883 5.14689,0.35859 6.06719,0.44393 3.10335,0.28775 7.73273,5.13714 8.42456,8.82495 0.36621,1.95206 0.25862,3.83744 -0.23909,4.18972 -0.49772,0.35226 -1.70826,1.90217 -2.69011,3.44423 -0.98184,1.54206 -2.54644,3.07296 -3.4769,3.402 -0.93045,0.32904 -2.36673,1.13232 -3.19173,1.78507 -4.60662,3.64478 -22.63515,6.09439 -31,4.21209 -3.20588,-0.7214 -3.33178,-0.66782 -1.49822,0.6376 1.10097,0.78385 4.92597,2.62305 8.5,4.0871 3.57402,1.46405 7.39822,3.09591 8.49822,3.62635 5.10608,2.46224 13.35008,4.87726 16.7609,4.90997 2.06849,0.0199 5.89349,-0.94265 8.5,-2.13887 z M 78.768753,414.23914 c 6.27112,-0.94954 14.2019,-4.99152 16.97756,-8.65274 5.794187,-7.64279 8.385647,-21.17229 5.838207,-30.48015 -1.977367,-7.22496 -9.097877,-20.29866 -11.566777,-21.23734 -1.23473,-0.46944 -2.49577,-1.50712 -2.8023,-2.30594 -0.51159,-1.33317 -9.08769,-7.7008 -10.37166,-7.7008 -0.30578,0 -2.19572,-1.28834 -4.19987,-2.86299 -2.00414,-1.57463 -4.9939,-3.55175 -6.6439,-4.39358 -3.392421,-1.73081 -13.331415,-2.63493 -15.293805,-1.39123 -0.746428,0.47307 -1.92275,0.298 -2.780409,-0.41379 -1.218809,-1.01152 -2.336783,-0.62801 -6.206195,2.12902 -5.624657,4.00766 -16.179526,14.90416 -16.241827,16.76752 -0.01223,0.36578 -0.902223,1.79005 -1.977764,3.16505 -1.075541,1.375 -1.965534,3.5125 -1.977764,4.75 -0.01223,1.2375 -0.386125,2.25 -0.830878,2.25 -1.085197,0 -5.125877,13.63342 -5.830368,19.6719 -0.671391,5.75478 1.745424,15.99297 4.917626,20.83221 2.592741,3.95527 12.316696,9.23641 19.346464,10.50719 5.072822,0.91702 32.27224,0.48181 39.64366,-0.63433 z M 44.568274,400.22182 c -2.5496,-3.24129 -3.385531,-7.39497 -2.14493,-10.658 1.119886,-2.94552 4.277045,-4.13056 9.408522,-3.53149 3.083675,0.36 3.441275,0.0943 4.900229,-3.64091 3.84752,-9.85042 4.147998,-22.40447 0.590236,-24.66023 -2.731051,-1.73158 -6.650665,-0.78048 -11.247048,2.72911 -2.591783,1.97898 -4.477923,3.83255 -4.191421,4.11905 0.286502,0.2865 -0.145204,1.18703 -0.959347,2.00117 -1.179064,1.17907 -1.779799,1.23167 -2.952381,0.25851 -2.530337,-2.09999 -1.755106,-6.31598 1.777879,-9.66874 9.804608,-9.30446 20.733486,-8.23337 23.663537,2.31917 1.462637,5.26767 1.365844,8.47307 -0.546827,18.10871 -1.94702,9.80868 -1.888511,9.92377 7.39315,14.5431 8.50464,4.23261 14.05018,9.7209 9.8223,9.7209 -0.77981,0 -3.81731,-1.22315 -6.75,-2.71812 -2.93269,-1.49496 -5.55716,-2.75132 -5.83216,-2.79191 -0.275,-0.0406 -1.992958,-0.86975 -3.817685,-1.84257 -3.62096,-1.93045 -7.682315,-1.87803 -7.682315,0.0992 0,1.7922 -5.069721,6.90766 -7.467269,7.53463 -1.386202,0.3625 -2.649477,-0.2498 -3.96447,-1.92154 z m 5.539693,-5.10965 c 1.837762,-2.42095 1.70997,-3.25 -0.500965,-3.25 -1.967153,0 -3.530279,2.50608 -2.551216,4.09024 0.821383,1.32903 1.55978,1.12575 3.052181,-0.84024 z M 301.44989,413.188 c 4.06507,-0.97548 11.39377,-4.97278 13.30012,-7.25429 4.55332,-5.44941 -0.24525,-9.07154 -12.01788,-9.07154 -6.18478,0 -9.23212,-1.01776 -9.23212,-3.08337 0,-0.37585 0.9,-0.91872 2,-1.20638 3.42268,-0.89505 2.20107,-2.67856 -1.75,-2.55494 -2.0625,0.0645 -6.06854,-0.0138 -8.90231,-0.17413 -4.70572,-0.2662 -5.47575,0.0137 -8.88386,3.22903 -3.13264,2.95549 -3.81044,4.34164 -4.22315,8.63674 -0.45628,4.74867 -0.26316,5.32963 2.6881,8.08652 1.74883,1.63366 5.06779,3.40022 7.37546,3.92569 4.14129,0.943 14.68637,0.65672 19.64564,-0.53333 z m -1.58825,-21.82583 c -0.31659,-0.825 -0.70432,-1.5 -0.86163,-1.5 -0.15731,0 -0.54504,0.675 -0.86163,1.5 -0.3471,0.90455 -0.005,1.5 0.86163,1.5 0.8667,0 1.20873,-0.59545 0.86163,-1.5 z m -1.65868,-7.69258 c 7.52989,-3.21053 8.08866,-8.42469 1.73826,-16.22047 -5.31368,-6.5231 -8.78806,-8.62563 -12.94161,-7.83163 -3.46911,0.66317 -4.27597,1.39751 -7.37538,6.71251 -3.33168,5.71331 -3.75514,11.46037 -1.09373,14.84381 1.90651,2.42372 2.71926,2.68124 8.07978,2.56007 3.27802,-0.0741 6.24422,0.14945 6.59155,0.49678 0.89747,0.89747 1.82413,0.79352 5.00113,-0.56106 z m -192.70295,-14.1591 c 0,-2.3012 10.63946,-19.13011 12.30254,-19.45949 0.86416,-0.17114 2.36403,0.89885 3.33305,2.37776 1.70498,2.60213 1.68991,2.81392 -0.46673,6.56117 -1.22572,2.12973 -1.87764,3.83687 -1.44872,3.79364 0.97082,-0.0978 6.14283,-3.4159 19.43373,-12.46751 5.69037,-3.87537 14.56521,-9.15472 19.72186,-11.7319 5.15665,-2.57719 9.89075,-5.11322 10.52021,-5.63563 1.42941,-1.1863 25.4456,-12.08636 26.62998,-12.08636 0.47748,0 4.15447,-1.51946 8.17111,-3.37658 4.01663,-1.85713 10.34689,-4.61048 14.06724,-6.11859 3.72035,-1.5081 6.9766,-3.08555 7.23612,-3.50546 0.25951,-0.4199 -3.46004,-4.75403 -8.26566,-9.6314 -4.80562,-4.87739 -10.86424,-11.34296 -13.46358,-14.36797 -3.8128,-4.43717 -4.90675,-5.21014 -5.66101,-4 -4.32788,6.94365 -12.57426,10.01792 -25.61014,9.54753 -12.42829,-0.44846 -29.77807,-5.22477 -40.37595,-11.11528 -2.40678,-1.33774 -4.80142,-2.43225 -5.32143,-2.43225 -0.52001,0 -1.62048,-0.675 -2.44548,-1.5 -1.66899,-1.669 -4.35714,-2.01554 -4.35714,-0.56172 0,0.51606 -1.29598,2.3572 -2.87995,4.09142 -1.58397,1.73423 -3.47833,4.3495 -4.20969,5.81172 -1.47707,2.95313 -7.66242,11.92331 -9.63986,13.98001 -0.69877,0.72678 -1.2705,1.65443 -1.2705,2.06144 0,0.407 -0.80942,1.61236 -1.798707,2.67857 -5.48601,5.91257 -16.40813,24.83 -16.85221,29.18856 -0.26351,2.58618 2.6e-4,2.73036 1.82949,1 1.90968,-1.80645 13.77855,-7.36377 17.444637,-8.16803 4.29767,-0.94284 5.55839,1.94256 1.60708,3.67811 -1.50166,0.65956 -2.95529,1.45639 -3.23029,1.77069 -0.275,0.31432 -3.170117,2.06146 -6.433587,3.88252 -3.26347,1.82108 -6.55812,3.93556 -7.32143,4.69887 -0.76331,0.76331 -1.80569,1.38784 -2.31641,1.38784 -0.51071,0 -0.92857,0.675 -0.92857,1.5 0,0.825 0.34523,1.5 0.76718,1.5 0.42194,0 3.06879,2.0134 5.88188,4.47422 3.76743,3.29566 6.26273,6.78586 9.47301,13.25 2.397067,4.82668 4.250217,9.11328 4.118117,9.52578 -0.1321,0.4125 0.20981,0.75 0.75981,0.75 0.55,0 1,-0.60825 1,-1.35168 z M 687.1038,352.29022 c 6.13758,-1.78295 8.84951,-3.19825 13.89621,-7.25214 9.21358,-7.40104 13.50224,-12.39075 18.69829,-21.75485 8.07204,-14.54709 8.46254,-16.28773 6.4171,-28.60391 -0.93262,-5.61563 -2.52296,-12.08044 -3.53408,-14.36625 -2.00466,-4.53185 -10.02648,-12.89738 -16.98211,-17.70973 -7.70419,-5.33025 -21.90984,-8.53053 -24.84357,-5.5968 -0.85391,0.85391 -1.85645,0.85783 -3.95,0.0154 -1.54309,-0.6209 -4.83063,-0.88493 -7.30563,-0.58673 -2.475,0.29821 -6.04625,0.71054 -7.9361,0.91631 -9.96379,1.08484 -13.56033,1.93294 -17.83455,4.20556 -5.29594,2.81588 -10.86174,8.16942 -10.43325,10.03536 0.15633,0.68076 -0.30821,1.0104 -1.03231,0.73253 -2.09919,-0.80553 -8.42928,6.53681 -10.8087,12.53715 -2.46719,6.22168 -4.14147,17.49621 -3.96816,26.72137 0.14943,7.95417 0.44277,9.36318 3.13746,15.07014 2.21901,4.69955 13.2577,16.13113 15.62561,16.18176 0.6875,0.0147 1.25,0.45567 1.25,0.97994 0,0.52426 2.1375,1.9043 4.75,3.06675 4.40018,1.95789 7.23073,2.85327 20.75,6.56376 6.07322,1.66685 16.03113,1.18941 24.10379,-1.15567 z m -37.10379,-8.39559 c -10.01456,-3.28651 -16.50398,-10.05418 -20.05704,-20.91703 -2.41369,-7.37943 -1.35147,-11.55778 4.29383,-16.89028 4.24423,-4.00905 4.46925,-4.47165 3.26742,-6.71728 -1.97544,-3.69115 -0.74346,-13.16559 2.47784,-19.05567 5.53399,-10.11875 15.78127,-13.27885 32.39244,-9.98931 4.04963,0.80196 10.15056,5.55744 11.59394,9.03712 1.19285,2.87568 1.40852,13.5 0.27404,13.5 -0.52605,0 -0.73302,0.58225 -0.45993,1.2939 0.27308,0.71164 -0.31548,2.96326 -1.30791,5.0036 l -1.80442,3.7097 4.86406,5.12673 c 2.67524,2.81971 5.1477,6.41809 5.49436,7.99641 0.34665,1.57831 0.99529,2.86966 1.44142,2.86966 1.28872,0 1.79759,7.16169 0.7816,11 -0.50954,1.925 -2.01211,4.53071 -3.33904,5.79047 -1.32694,1.25976 -2.41261,2.65391 -2.41261,3.09812 0,0.44422 -1.9125,1.5972 -4.25,2.56219 -2.3375,0.96499 -5.15,2.23422 -6.25,2.82051 -1.1,0.58629 -6.275,1.21544 -11.5,1.3981 -7.42312,0.25951 -10.81171,-0.0984 -15.5,-1.63693 z m 27.1102,-7.34295 c 5.55201,-2.82252 9.3898,-7.39292 9.3898,-11.18226 0,-3.64336 -4.54515,-12.1631 -7.53335,-14.12106 -2.35391,-1.54234 -2.64552,-1.53429 -4.47741,0.12355 -1.82368,1.65041 -2.25514,1.66445 -6.22437,0.20253 -2.34568,-0.86394 -7.79078,-2.33134 -12.10022,-3.2609 -7.5167,-1.62137 -7.99414,-1.61408 -11.74023,0.17926 -5.17858,2.47912 -7.36194,6.96608 -6.42618,13.20621 1.26954,8.46587 5.84578,13.05784 17.00176,17.06018 4.96951,1.78287 16.53167,0.62849 22.1102,-2.20751 z m -9.14181,-36.03586 c 4.23929,-0.98497 5.30395,-1.74129 7.2551,-5.15401 2.80586,-4.90764 2.88343,-12.64041 0.15161,-15.11267 -0.99199,-0.89774 -4.09292,-1.76449 -7.07096,-1.97642 -2.91728,-0.20761 -6.44843,-0.85089 -7.847,-1.42953 -7.00757,-2.89925 -17.66367,9.08348 -15.55374,17.49012 0.70156,2.79525 3.07305,4.30489 9.59091,6.10538 5.53962,1.53026 7.17938,1.53964 13.47408,0.0771 z M 182.1951,283.36008 c 2.78195,-0.82615 6.69273,-2.99937 8.69063,-4.82937 3.10662,-2.84555 3.54424,-3.76875 3.02266,-6.37662 -0.6756,-3.37802 0.87506,-5.1315 2.98753,-3.37831 1.02416,0.84998 1.98959,-0.3923 4.44531,-5.72007 4.29702,-9.3225 7.004,-22.30577 7.09917,-34.0492 0.097,-11.96399 -4.19137,-24.6189 -10.61542,-31.32621 -3.9044,-4.07656 -14.19636,-8.52962 -27.1507,-11.74739 -6.42085,-1.59489 -13.02427,-3.61049 -14.67427,-4.47911 -1.65,-0.86862 -3.40039,-1.58208 -3.88976,-1.58546 -0.48936,-0.003 -1.4192,-0.73022 -2.06629,-1.61517 -1.07738,-1.4734 -1.67664,-1.45536 -7.11024,0.21411 -3.26354,1.00272 -7.50871,2.7025 -9.43371,3.77729 -1.925,1.0748 -5.40788,2.98833 -7.73973,4.2523 -3.67628,1.9927 -7.90653,5.33304 -12.90062,10.18673 -0.74781,0.72678 -1.35965,1.96428 -1.35965,2.75 0,0.78571 -0.41153,1.42857 -0.91451,1.42857 -1.37593,0 -6.23027,9.18032 -5.65165,10.68818 0.27686,0.7215 0.10707,1.31182 -0.37733,1.31182 -1.3605,0 -2.43133,7.70281 -2.22429,16 0.43019,17.23971 5.29714,26.27827 21.33257,39.61738 5.4904,4.56722 23.38262,11.83899 37.33521,15.17384 6.22375,1.48755 15.63694,1.35728 21.19509,-0.2933 z M 163.95003,249.7813 c -1.24441,-2.01349 -3.37858,-12.39566 -3.4144,-16.61011 -0.0196,-2.30504 -0.43781,-4.43956 -0.92939,-4.74336 -0.94759,-0.58565 -5.6325,1.31004 -10.60623,4.29167 -4.85248,2.90894 -7.18317,3.15024 -9.17451,0.94984 -1.4918,-1.64842 -1.85147,-4.282 -2.17029,-15.89152 -0.37784,-13.75815 -0.35743,-13.91565 1.80275,-13.91565 2.18581,0 5.37962,2.3291 4.45782,3.25089 -0.26894,0.26895 -0.74561,5.04752 -1.05925,10.61905 -0.65164,11.57555 -0.62068,11.61001 6.85563,7.63006 2.58293,-1.375 5.34371,-2.5 6.13506,-2.5 2.05818,0 2.67339,-2.33439 1.62748,-6.1754 -0.49791,-1.82853 -1.31412,-6.6996 -1.8138,-10.8246 -0.91991,-7.594 -0.34387,-10 2.39417,-10 1.64385,0 2.34448,2.25246 2.48841,8 0.062,2.475 0.60424,7.28296 1.20502,10.68436 0.91743,5.19415 1.46534,6.27798 3.42192,6.76905 2.71508,0.68144 3.20783,4.27235 0.7174,5.22802 -1.34762,0.51713 -1.49974,1.61263 -0.92692,6.67563 0.37689,3.33134 1.32738,7.59378 2.11219,9.47208 2.06853,4.95071 1.86594,8.17086 -0.51406,8.17086 -1.06754,0 -2.24159,-0.48639 -2.609,-1.08087 z m 398.22609,-20.78819 c 8.53124,-5.514 16.08254,-16.55482 24.99914,-36.55146 3.33415,-7.47727 3.60263,-8.80236 3.60204,-17.77809 -7.4e-4,-11.24315 -0.97274,-13.9468 -7.6145,-21.17985 -4.12536,-4.49263 -4.75122,-4.82753 -7.91321,-4.23434 -2.9813,0.5593 -3.75771,0.25285 -5.89468,-2.32665 -2.39739,-2.89385 -2.70582,-2.97351 -11.90802,-3.07565 -5.19578,-0.0577 -10.57188,0.12979 -11.94688,0.41656 -7.3159,1.52583 -8.76086,2.04854 -11.68328,4.22634 -1.7508,1.30471 -3.4383,2.3722 -3.75,2.3722 -0.3117,0 -1.38589,0.7875 -2.3871,1.75 -1.0012,0.9625 -4.5825,4.1686 -7.95844,7.12466 -3.37594,2.95606 -6.06014,5.65606 -5.96489,6 0.17387,0.62777 -5.03079,9.18865 -6.15578,10.12534 -0.67648,0.56326 -6.10051,11.74932 -6.10051,12.58118 0,0.29527 0.4949,0.231 1.09977,-0.14284 0.71917,-0.44447 0.67999,0.10467 -0.11322,1.5868 -2.8504,5.32601 0.71284,16.89887 6.98655,22.6912 1.93979,1.79096 5.6961,5.24978 8.34735,7.68626 8.11294,7.45576 20.89757,12.33724 32.77451,12.51409 4.87176,0.0725 6.36875,-0.41681 11.58115,-3.78575 z m -14.18686,-17.88094 c -0.39859,-0.9625 -0.9569,-6.1375 -1.24068,-11.5 -0.28378,-5.3625 -0.89492,-9.75 -1.3581,-9.75 -0.46317,0 -2.31551,0.89832 -4.1163,1.99627 -3.25661,1.98555 -9.27429,2.64074 -11.37447,1.23842 -2.39001,-1.59585 -3.3997,-5.44756 -3.3997,-12.96894 0,-8.16352 0.87471,-10.26575 4.27143,-10.26575 3.37388,0 6.07091,4.32433 3.993,6.40224 -1.30248,1.30248 -1.09129,6.91376 0.31306,8.31811 2.57448,2.57449 13.81162,-3.6637 11.96929,-6.64465 -0.25283,-0.4091 -0.0256,-4.93928 0.50487,-10.06707 1.24194,-12.00414 3.00397,-14.29686 7.7945,-10.14206 1.85599,1.6097 2.06446,2.53861 1.51486,6.75 -0.35052,2.68589 -1.04699,5.40587 -1.54772,6.04441 -0.56127,0.71574 -0.50203,1.41336 0.15446,1.8191 0.58568,0.36196 0.79379,1.09674 0.46247,1.63283 -0.33132,0.53609 -0.0563,1.63277 0.61125,2.43706 0.66751,0.8043 1.51144,2.91841 1.87541,4.69803 0.55179,2.69794 0.23411,3.59552 -1.91158,5.401 -2.57289,2.16494 -2.57321,2.16726 -1.77845,12.89259 0.8587,11.58814 0.33864,13.45841 -3.74231,13.45841 -1.24881,0 -2.59669,-0.7875 -2.99529,-1.75 z M 166.97223,178.90583 c -2.21912,-2.20126 -11.2839,-4.166 -10.05626,-2.17964 0.39723,0.64273 1.14114,0.90971 1.65314,0.59328 0.51199,-0.31643 0.9309,-0.16387 0.9309,0.33903 0,0.90603 5.13828,2.90507 7.97222,3.10159 1.1004,0.0763 0.97413,-0.39201 -0.5,-1.85426 z m 189.9252,46.23135 c -11.16401,-1.02207 -15.39406,-17.63315 -6.53253,-25.65274 2.95942,-2.67823 7.2114,-1.75497 9.6216,2.08921 2.5208,4.02059 3.9773,4.07922 7.16696,0.28852 3.47851,-4.13397 7.49527,-4.05546 11.40292,0.22286 1.619,1.77257 2.94363,3.79757 2.94363,4.5 0,0.70243 0.47147,1.27714 1.04772,1.27714 0.65029,0 0.93478,-2.37079 0.75,-6.25 l -0.29772,-6.25 -4.25,0.33599 c -3.97705,0.31441 -4.25,0.17217 -4.25,-2.21481 0,-2.72139 2.4396,-4.62118 5.93426,-4.62118 2.26281,0 2.30606,-0.15958 2.0817,-7.6807 -0.1219,-4.08662 0.29566,-5.63092 1.97725,-7.3125 3.19791,-3.19792 4.49622,-2.04274 4.58707,4.08136 0.10597,7.14289 1.1443,10.23151 3.17738,9.45135 0.86733,-0.33283 4.20168,-0.87948 7.40966,-1.21478 4.89128,-0.51124 5.83268,-0.35636 5.83268,0.95958 0,1.48738 -5.05245,4.70931 -7.40364,4.72127 -0.603,0.003 -2.80102,0.47896 -4.8845,1.05754 l -3.78815,1.05195 0.19884,7.19247 c 0.10936,3.95585 0.59236,7.97996 1.07333,8.94246 1.07618,2.15361 5.683,2.30885 8.36299,0.2818 2.73304,-2.06717 6.18849,-1.90316 6.89642,0.32732 0.96193,3.03078 -0.21078,4.54041 -5.36321,6.90414 -6.84896,3.14202 -11.33887,2.96255 -14.26457,-0.57018 l -2.32461,-2.80692 -2.73174,3.77104 c -3.84498,5.30785 -7.94483,7.27062 -12.2317,5.85583 -3.52198,-1.16235 -8.911,-0.4232 -7.97353,1.09364 0.30366,0.49133 0.41305,0.81471 0.24309,0.71862 -0.16996,-0.0961 -2.15518,-0.34371 -4.4116,-0.55028 z m 1.66832,-7.31019 c 2.23223,-1.19466 2.64634,-6.12895 0.6532,-7.78311 -2.17975,-1.80904 -6.50949,-2.1699 -7.11462,-0.59297 -0.6247,1.62793 0.7549,5.77027 2.631,7.89972 1.5473,1.75626 1.45934,1.74532 3.83042,0.47636 z m 15.71175,-1.52152 c 2.5935,-1.81655 3.00206,-6.55144 0.72816,-8.4386 -1.22765,-1.01887 -1.84637,-0.81764 -3.46673,1.12754 -2.04964,2.46051 -2.46759,4.58711 -1.43193,7.28598 0.75764,1.9744 1.38211,1.97814 4.1705,0.0251 z m -53.64387,7.2177 c -1.86319,-2.24501 -6.59144,-30.96097 -6.24121,-37.90459 0.14179,-2.81106 6.74126,-9.87316 11.71865,-12.54015 5.10674,-2.7363 10.61078,0.18016 12.32011,6.52814 1.40739,5.22665 -0.45837,16.7828 -3.14307,19.4675 -2.38908,2.38909 -2.25317,4.26722 0.46786,6.46553 5.51056,4.45196 10.05186,12.01664 10.24917,17.07257 0.0693,1.7745 -0.45036,2.24372 -2.45866,2.22026 -2.05019,-0.0239 -3.21278,-1.19329 -5.96538,-6 -1.8804,-3.28364 -3.70805,-5.97026 -4.06144,-5.97026 -0.35339,0 -1.57555,-0.86924 -2.7159,-1.93164 -2.04908,-1.90901 -2.09783,-1.90886 -4.16092,0.0132 -2.0058,1.86869 -2.15734,4.62246 -0.53904,9.79519 0.51575,1.64855 -1.34709,4.12325 -3.10379,4.12325 -0.69031,0 -1.75518,-0.60255 -2.36638,-1.339 z m 9.32423,-27.99886 c 1.90428,-3.2494 2.54215,-5.74378 2.54215,-9.94098 0,-3.08172 -0.46979,-5.89347 -1.04398,-6.24833 -0.98353,-0.60786 -5.13985,1.58365 -7.54531,3.97844 -2.20448,2.1947 -3.00701,6.70857 -1.97984,11.13577 0.88564,3.81727 1.77666,4.80527 4.77698,5.29696 0.38931,0.0638 1.85181,-1.83604 3.25,-4.22186 z"
       id="path3375"
       inkscape:connector-curvature="0" />
  </g>
</svg>
