<?xml version="1.0" encoding="UTF-8" standalone="no"?>
<!-- Created with Inkscape (http://www.inkscape.org/) -->

<svg
   xmlns:dc="http://purl.org/dc/elements/1.1/"
   xmlns:cc="http://creativecommons.org/ns#"
   xmlns:rdf="http://www.w3.org/1999/02/22-rdf-syntax-ns#"
   xmlns:svg="http://www.w3.org/2000/svg"
   xmlns="http://www.w3.org/2000/svg"
   xmlns:sodipodi="http://sodipodi.sourceforge.net/DTD/sodipodi-0.dtd"
   xmlns:inkscape="http://www.inkscape.org/namespaces/inkscape"
   width="413"
   height="459.63943"
   id="svg2"
   version="1.1"
   inkscape:version="0.48.2 r9819"
   sodipodi:docname="immutable.svg">
  <defs
     id="defs4">
    <clipPath
       clipPathUnits="userSpaceOnUse"
       id="clipPath3196">
      <rect
         style="fill:#000000;fill-opacity:1;stroke:none"
         id="rect3198"
         width="474.28571"
         height="500"
         x="148.57143"
         y="98.076469"
         transform="scale(-1,1)" />
    </clipPath>
  </defs>
  <sodipodi:namedview
     id="base"
     pagecolor="#ffffff"
     bordercolor="#666666"
     borderopacity="1.0"
     inkscape:pageopacity="0.0"
     inkscape:pageshadow="2"
     inkscape:zoom="0.35"
     inkscape:cx="212"
     inkscape:cy="25.736559"
     inkscape:document-units="px"
     inkscape:current-layer="layer1"
     showgrid="false"
     inkscape:window-width="1440"
     inkscape:window-height="852"
     inkscape:window-x="0"
     inkscape:window-y="0"
     inkscape:window-maximized="1"
     fit-margin-top="0"
     fit-margin-left="0"
     fit-margin-right="0"
     fit-margin-bottom="0" />
  <metadata
     id="metadata7">
    <rdf:RDF>
      <cc:Work
         rdf:about="">
        <dc:format>image/svg+xml</dc:format>
        <dc:type
           rdf:resource="http://purl.org/dc/dcmitype/StillImage" />
        <dc:title />
      </cc:Work>
    </rdf:RDF>
  </metadata>
  <g
     inkscape:label="Layer 1"
     inkscape:groupmode="layer"
     id="layer1"
     transform="translate(-163,-98.459319)">
    <path
       style="fill:#000000"
       d="m 454.5,556.91053 c -1.1,-0.65514 -2.24875,-1.52414 -2.55279,-1.93111 -0.30403,-0.40696 -3.29765,-1.85525 -6.65248,-3.21844 C 433.42817,546.93916 422,539.28962 422,536.16845 c 0,-2.99393 3.0334,-2.37532 7.51093,1.53171 4.15598,3.62647 5.48907,4.23017 5.48907,2.4858 0,-0.94556 11.20723,-12.31572 21.83305,-22.15046 4.32917,-4.00686 4.33132,-4.01238 2.40002,-6.16331 -3.60749,-4.01773 -7.93904,-11.13743 -9.21883,-15.15285 -0.70119,-2.2 -1.65684,-4.48479 -2.12368,-5.0773 -2.83694,-3.60068 -2.82253,-24.78231 0.0205,-30.18182 0.50415,-0.95749 1.91418,-4.66588 3.13339,-8.24088 1.21921,-3.575 3.79518,-8.89029 5.72437,-11.81177 1.93717,-2.93354 3.10993,-5.65783 2.61938,-6.08471 -0.48852,-0.42512 -3.00862,-1.55301 -5.60021,-2.50642 -3.18598,-1.17208 -6.34355,-3.51868 -9.75,-7.24587 -5.44987,-5.96303 -5.91798,-7.07633 -3.38421,-8.04863 1.1214,-0.43032 2.72487,0.53411 4.98081,2.99576 3.65083,3.98375 8.38501,7.43104 8.33137,6.06665 -0.0187,-0.47576 -2.24966,-3.79001 -4.95767,-7.36501 -2.70801,-3.575 -7.3052,-9.78734 -10.21599,-13.80521 -2.91078,-4.01786 -8.1071,-10.99286 -11.54737,-15.5 -3.44027,-4.50713 -8.09311,-11.00729 -10.33964,-14.44479 -2.24653,-3.4375 -4.39724,-6.25 -4.77935,-6.25 -0.38212,0 -1.42714,-1.2375 -2.32227,-2.75 -0.89514,-1.5125 -2.5156,-3.7719 -3.60102,-5.02088 -1.08542,-1.24899 -3.03756,-3.83341 -4.33809,-5.74317 -2.75424,-4.04446 -2.79611,-4.0535 -7.65443,-1.65197 -8.06001,3.98418 -16.60706,5.43758 -29.00001,4.93137 -11.84021,-0.48363 -18.97776,-2.4359 -23.34142,-6.38437 -1.46769,-1.32804 -2.06936,-0.9341 -6,3.92846 -2.4028,2.97248 -7.06873,8.51961 -10.36873,12.32696 -3.3,3.80735 -7.35,8.63 -9,10.71701 -1.65,2.08701 -4.27026,5.22377 -5.82279,6.97057 -3.6888,4.1504 -12.77062,16.4532 -19.67721,26.65599 -3.025,4.4687 -6.51537,9.33881 -7.75637,10.82247 -1.241,1.48366 -3.00599,4.72256 -3.92219,7.19756 -0.91621,2.475 -2.13872,5.11706 -2.7167,5.87124 -0.57798,0.75418 0.73701,0.14951 2.9222,-1.34371 5.68249,-3.88306 13.12289,-7.54436 13.85127,-6.81599 1.23921,1.23921 0.50698,2.01389 -6.29931,6.66441 -9.6519,6.59485 -9.76392,6.78935 -6.21241,10.78631 4.69242,5.28099 11.47803,13.93305 15.4075,19.6455 4.02492,5.85121 5.15915,10.90694 4.44627,19.81886 -0.56027,7.00404 -0.76821,7.84282 -3.06751,12.37338 l -1.77627,3.5 6.81176,6.51258 c 7.87109,7.52537 12.95964,11.49768 15.84667,12.37048 1.57153,0.47509 2.4577,-0.1247 3.89154,-2.63394 2.74068,-4.79623 6.69877,-8.74912 8.76064,-8.74912 2.73379,0 2.1849,2.64451 -1.3567,6.53646 -1.74328,1.91574 -3.88078,4.54737 -4.75,5.84806 -0.86921,1.30069 -2.44985,3.65878 -3.51253,5.24019 -1.06268,1.58141 -2.91815,4.00029 -4.12326,5.37529 -1.20512,1.375 -2.81487,3.85 -3.57723,5.5 -0.82586,1.78744 -2.29174,3.12916 -3.62674,3.31955 -3.29707,0.47022 -2.8098,-1.69547 1.75937,-7.81955 2.2,-2.94867 4,-5.70887 4,-6.13379 0,-0.42492 -3.2625,-3.56626 -7.25,-6.98077 -3.9875,-3.4145 -7.48216,-6.47307 -7.76591,-6.79681 -0.28375,-0.32375 -1.92336,-1.86444 -3.64358,-3.42377 l -3.12768,-2.83514 -4.77007,4.57053 c -7.16452,6.86482 -15.12706,7.42547 -25.61521,1.80358 -2.93015,-1.57062 -7.80255,-3.6488 -10.82755,-4.61817 -7.38585,-2.3668 -14.94841,-6.22016 -17.11864,-8.72246 -2.19085,-2.52606 -3.31943,-1.885 -6.02786,3.42397 -2.27549,4.46032 -3.85047,6.80739 -10.86027,16.18423 -2.47872,3.31573 -5.83286,8.0536 -7.45364,10.5286 -1.62078,2.475 -4.42479,6.36909 -6.23113,8.65352 l -3.28425,4.15353 4.7379,3.06045 c 6.18735,3.99673 10.42814,8.01566 9.70049,9.19301 -0.92563,1.4977 -4.09401,1.08913 -5.59015,-0.72085 -2.11305,-2.55634 -22.08198,-15.33966 -23.96218,-15.33966 -2.48343,0 -4.14509,-2.36515 -2.68645,-3.82378 1.84509,-1.84509 4.01433,-1.41106 9.11516,1.82378 2.60178,1.65 5.11083,3 5.57568,3 0.95753,0 16.76457,-20.64117 22.20824,-29 1.97002,-3.025 4.79007,-7.93287 6.26677,-10.90636 l 2.68491,-5.40638 -2.41665,-2.59362 c -2.69362,-2.89089 -4.18018,-7.1534 -5.07706,-14.55787 -1.58316,-13.07018 11.76857,-33.40769 27.6039,-42.04659 4.62472,-2.523 6.24214,-2.87275 12.44976,-2.6922 l 7.13449,0.20751 0.6866,-5.49533 c 0.49632,-3.97244 1.27914,-5.91038 2.82477,-6.99297 2.79791,-1.95973 4.71319,-0.33676 2.9446,2.4952 -0.67373,1.07881 -1.22496,2.9468 -1.22496,4.15106 0,1.72148 0.73406,1.13646 3.43358,-2.73643 1.88846,-2.70931 4.37414,-6.27602 5.52372,-7.92602 12.44934,-17.86858 17.75946,-25.15621 20.4018,-27.99951 1.0225,-1.10027 5.13087,-6.27549 9.1297,-11.50049 3.99883,-5.225 8.11224,-10.47461 9.1409,-11.66579 C 329.2319,357.90827 336,348.74924 336,347.46003 c 0,-0.59265 -1.4625,-1.98696 -3.25,-3.09845 -8.88569,-5.5252 -14.32429,-13.96388 -16.61659,-25.78273 -1.30409,-6.72376 -0.69227,-11.11805 2.87574,-20.65441 3.52046,-9.40927 20.90417,-25.31011 33.77419,-30.89315 2.59416,-1.12536 5.98371,-3.23091 7.53232,-4.67903 2.21958,-2.07552 3.81646,-2.63292 7.54306,-2.63292 3.90038,0 6.17835,0.87472 13.0212,5 12.35086,7.44584 19.26267,16.04349 21.70582,27 0.82463,3.69814 3.63823,16.14081 4.97474,22 2.10048,9.20836 1.24778,24.06831 -1.73965,30.31676 -2.01598,4.2166 -2.02159,4.39527 -0.24151,7.70066 1.00229,1.86116 2.96948,4.64362 4.37152,6.18326 1.40204,1.53963 3.88781,4.82432 5.52394,7.29932 3.10712,4.7002 11.51651,16.13544 12.50167,17 0.31336,0.275 1.37669,1.7672 2.36294,3.316 0.98626,1.5488 2.41132,3.5738 3.16681,4.5 0.75548,0.9262 4.17062,5.50901 7.5892,10.184 3.41858,4.67501 6.51283,8.725 6.8761,9 0.36327,0.275 2.09912,2.61454 3.85744,5.19898 1.75831,2.58444 3.57786,4.9344 4.04343,5.22215 0.93166,0.5758 0.8876,0.008 -0.9824,-12.67083 -0.94782,-6.4261 -0.99493,-9.04534 -0.17739,-9.86288 1.87415,-1.87415 3.28654,0.0157 3.30456,4.4216 0.009,2.30505 0.95471,7.56599 2.10064,11.69099 1.14593,4.125 2.28511,9.075 2.53152,11 0.2464,1.925 0.66155,4.51993 0.92255,5.76651 l 0.47454,2.26651 3.72681,-2.01869 c 2.04974,-1.1103 6.314,-2.72456 9.47614,-3.58729 3.16213,-0.86271 6.43974,-2.25897 7.28356,-3.10281 2.92663,-2.92662 9.66911,-0.67176 25.50065,8.52808 9.88291,5.74304 13.71486,9.59278 19.53655,19.62723 1.58894,2.73874 3.67032,5.76088 4.62529,6.71585 2.22465,2.22465 6.87739,11.13897 8.51002,16.30461 1.57285,4.97648 1.67894,19.44988 0.17008,23.20295 -2.28196,5.67603 -3.34469,7.85839 -5.08945,10.45142 -0.98232,1.45989 -1.77612,3.0349 -1.764,3.5 0.0261,1.0024 5.85069,7.21487 15.70179,16.74749 l 7.13245,6.90188 7.38372,-7.82717 c 7.01782,-7.4393 9.76,-8.80333 9.76,-4.85491 0,1.89005 -27.36254,28.97837 -29.95709,29.65687 -3.3466,0.87514 -3.2164,-2.18672 0.2218,-5.21563 5.36707,-4.72817 8.73529,-7.9458 8.73529,-8.34473 0,-0.55061 -11.66062,-12.36017 -18.28239,-18.5159 l -5.6988,-5.29772 -2.2594,2.13258 c -6.38819,6.0296 -21.99152,10.87124 -35.67678,11.07034 -7.897,0.11489 -15.74677,-2.40718 -23.2985,-7.48564 l -5.28413,-3.55352 -5.90083,5.71585 C 445.23513,535.94859 440,541.64077 440,543.22645 c 0,1.06908 2.34334,2.81744 6.47896,4.83388 3.56343,1.73745 6.82593,3.16125 7.25,3.16399 0.42407,0.003 2.08113,1.05324 3.68235,2.33448 4.29831,3.43935 1.89036,6.21159 -2.91131,3.35173 z m 48.00628,-33.77698 c 6.48255,-1.19836 19.39321,-6.03528 22.19987,-8.31707 0.98662,-0.80212 3.16346,-2.57645 4.83742,-3.94297 4.98894,-4.07263 8.88297,-12.96912 9.30113,-21.24983 0.58449,-11.57453 -1.10084,-17.15313 -8.20256,-27.15128 -3.41953,-4.81417 -7.70639,-11.22806 -9.52636,-14.25306 -2.27691,-3.7845 -5.15739,-6.74762 -9.23507,-9.5 -10.01507,-6.76001 -12.49953,-8.00288 -18.78519,-9.39734 -5.76054,-1.27799 -6.50259,-1.21146 -14.58098,1.30727 -9.76647,3.04503 -13.2796,5.9402 -18.95171,15.61817 -12.46564,21.2694 -11.90174,42.60563 1.57424,59.56374 11.95209,15.04044 24.74228,20.39603 41.36921,17.32237 z M 475.36874,509.2974 c -1.62488,-0.98815 -3.71808,-2.96226 -4.65155,-4.38692 -3.49414,-5.33273 -1.71446,-15.89495 3.92374,-23.28702 1.68645,-2.21105 2.32355,-3.81836 1.67827,-4.23406 -1.57487,-1.01452 -3.97557,-6.23966 -4.67266,-10.17005 -0.84298,-4.75293 1.7069,-13.80799 4.74336,-16.84445 2.03118,-2.03117 3.69092,-2.54589 9.29151,-2.88149 10.69753,-0.64103 12.27414,-0.474 16.96645,1.79752 11.77506,5.70021 12.7558,18.49937 1.94041,25.32343 -2.52355,1.59226 -4.58827,3.09511 -4.58827,3.33971 0,0.24458 0.87228,1.19182 1.9384,2.10499 1.06612,0.91315 3.01107,3.68529 4.3221,6.16028 1.89692,3.58104 2.24103,5.30845 1.68507,8.45884 -0.38424,2.17737 -1.20419,4.12738 -1.8221,4.33334 -0.61791,0.20597 -1.12347,0.9376 -1.12347,1.62586 0,1.73522 -4.71501,5.74769 -9.5,8.08451 -5.51975,2.69564 -16.14547,2.99941 -20.13126,0.57551 z m 20.57675,-5.42328 c 2.24073,-1.48285 4.7066,-4.37037 5.98189,-7.00476 2.01169,-4.15558 2.06079,-4.72473 0.67428,-7.81598 -1.61362,-3.5976 -3.09169,-5.54136 -5.87455,-7.72547 -1.57404,-1.23537 -1.69532,-1.1893 -1.08133,0.41074 0.5875,1.53101 0.32764,1.69161 -1.72711,1.06732 -1.33027,-0.40418 -4.57663,-0.98573 -7.21414,-1.29234 -4.11273,-0.47811 -5.15715,-0.21842 -7.33588,1.82412 -3.24638,3.04342 -6.36865,9.86731 -6.36865,13.919 0,3.27173 2.94674,7.92142 5.83255,9.20325 3.39624,1.50855 13.15388,0.0341 17.11294,-2.58588 z m 0.69484,-29.7227 c 9.33521,-4.5191 13.17158,-13.1742 8.10967,-18.29596 -3.83436,-3.8797 -7.55271,-5.72373 -10.20113,-5.05902 -2.09913,0.52685 -2.37481,1.04321 -1.87942,3.52016 0.70958,3.54788 0.11929,3.60614 -4.08056,0.40275 -1.80272,-1.375 -3.95384,-2.5 -4.78027,-2.5 -4.35417,0 -8.59523,8.99346 -7.35604,15.59895 1.44321,7.69294 11.11258,10.72633 20.18775,6.33312 z M 286.04284,508.5825 C 288.76928,506.03224 291,503.38891 291,502.70845 c 0,-0.68045 1.08145,-3.20638 2.40321,-5.61316 2.52677,-4.60092 3.95659,-11.00735 3.76646,-16.87595 -0.11739,-3.62337 -4.00082,-12.32282 -6.97181,-15.61785 -0.93382,-1.03567 -3.56398,-4.35784 -5.8448,-7.3826 -2.28082,-3.02474 -5.7843,-7.07454 -7.78552,-8.99955 -2.00122,-1.92499 -5.27624,-5.19287 -7.27781,-7.26191 -2.56597,-2.6525 -4.19167,-3.58659 -5.51247,-3.1674 -1.03028,0.327 -2.4791,0.0917 -3.2196,-0.52283 -3.65503,-3.0334 -21.39142,10.30612 -28.39659,21.35703 -6.2119,9.79952 -7.22872,20.76225 -2.73226,29.45745 2.48838,4.81199 14.81512,13.8237 21.90526,16.01427 3.39126,1.04777 9.54093,3.52396 13.66593,5.50263 10.79199,5.17672 14.61984,4.99188 21.04284,-1.01608 z m -16.42271,-16.92703 c -2.6196,-2.00022 -6.33151,-4.06988 -8.24867,-4.59923 -3.16634,-0.87427 -3.77183,-0.68278 -6.60764,2.08975 -1.71704,1.67872 -3.97357,3.32253 -5.01452,3.65292 -2.7492,0.87256 -5.7493,-2.281 -5.7493,-6.04342 0,-5.84776 3.48797,-7.99798 10,-6.1647 2.2125,0.62288 2.74559,0.21073 4.63555,-3.58382 4.81517,-9.66758 5.9543,-16.33321 3.1034,-18.15949 -2.43302,-1.55859 -8.4271,1.75486 -11.5268,6.37186 -2.51636,3.74812 -5.47138,4.60797 -6.02138,1.75211 -0.19922,-1.03449 1.66152,-3.84254 4.55881,-6.87975 4.3728,-4.58396 5.43578,-5.18376 9.95685,-5.61817 4.28417,-0.41166 5.40384,-0.14392 7.29124,1.74348 1.94018,1.94018 2.14324,2.88248 1.56327,7.25449 -0.3666,2.76357 -1.99279,7.94962 -3.61374,11.52457 -1.62096,3.57495 -2.9472,6.60998 -2.9472,6.74452 0,0.13453 2.3625,1.43807 5.25,2.89674 7.76135,3.92078 11.73964,6.8939 11.4681,8.57053 -0.4349,2.68537 -3.25627,2.14451 -8.09797,-1.5524 z m -17.62995,-4.9243 c 1.00286,-1.20836 0.91924,-1.60935 -0.44477,-2.13278 -1.97026,-0.75605 -4.07104,0.96145 -3.09926,2.53382 0.92279,1.49311 2.08078,1.36207 3.54403,-0.40104 z M 381,353.4993 c 8.49146,-1.94414 14.52896,-4.95072 15.87532,-7.90565 0.59499,-1.30587 1.76645,-2.37431 2.60324,-2.37431 0.83679,0 1.52144,-0.70156 1.52144,-1.55902 0,-0.85746 0.39695,-1.31368 0.88212,-1.01383 0.48516,0.29984 1.1812,-3.6111 1.54675,-8.69098 0.57782,-8.02967 0.27262,-11.11186 -2.33634,-23.59515 -4.19987,-20.09544 -6.99999,-26.97339 -13.27992,-32.61959 -2.7659,-2.48679 -5.45664,-4.52143 -5.9794,-4.52143 -0.52277,0 -2.65078,-1.36639 -4.72892,-3.03643 -4.23735,-3.40522 -12.68138,-5.60382 -10.2682,-2.67355 1.28772,1.56364 0.7546,4.19308 -0.67145,3.31174 -1.95958,-1.21109 -11.24927,1.86725 -17.62278,5.83969 -19.1057,11.90805 -29.25948,26.5603 -28.15148,40.62353 0.81006,10.28167 4.7538,17.11868 13.81797,23.95533 3.26658,2.46383 7.36854,5.89669 9.11545,7.62855 4.49167,4.453 8.94537,6.42367 16.56169,7.32815 9.49187,1.12722 13.76229,0.98624 21.11451,-0.69706 z m -12,-26.69135 0,-13.5505 -2.58643,-0.64916 c -1.42253,-0.35703 -5.95881,-0.34354 -10.08061,0.03 l -7.49418,0.6791 0.30141,-11.0517 c 0.26759,-9.81159 0.51357,-11.11904 2.19212,-11.65178 3.19679,-1.01463 4.71407,1.52535 3.64717,6.10546 -0.51247,2.20001 -0.9425,5.46251 -0.95562,7.25 l -0.0239,3.24996 7.48095,0 c 7.16649,0 7.5076,-0.10619 8.11502,-2.52634 0.34874,-1.38949 0.32648,-5.8088 -0.0495,-9.82069 -0.54331,-5.79799 -0.3835,-7.54336 0.77904,-8.50818 1.1647,-0.96662 1.78769,-0.8887 3.05895,0.38256 1.37502,1.37502 1.51309,3.63317 0.99566,16.28452 -0.3304,8.07848 -0.66359,19.63814 -0.74044,25.68813 -0.1346,10.59732 -0.22208,11.0117 -2.38971,11.31956 -2.23836,0.3179 -2.25,0.24943 -2.25,-13.23095 z m -201.41502,6.22784 c -0.26756,-1.27404 -0.7719,-9.51644 -1.12075,-18.31645 -0.46214,-11.65763 -1.0183,-16.42846 -2.04925,-17.57874 C 163.63674,296.27229 163,295.12307 163,294.58677 c 0,-2.89179 12.91073,-11.36743 17.31572,-11.36743 0.92636,0 2.63807,0.95379 3.80382,2.11954 3.69753,3.69754 1.67661,10.76501 -6.82318,23.8617 l -2.20363,3.39542 2.20363,1.46098 c 7.10046,4.7075 15.58161,16.43203 14.3008,19.76975 -0.95469,2.48788 -2.24908,1.50009 -6.36514,-4.85739 -3.87081,-5.97869 -6.92873,-8.93213 -12.09799,-11.68466 l -2.36596,-1.25983 0.36596,9.32967 c 0.32125,8.18956 0.15648,9.37048 -1.3483,9.66369 -1.12912,0.22 -1.88033,-0.45668 -2.20075,-1.98242 z M 176.25,303.3822 c 1.5125,-2.2677 2.75,-4.54456 2.75,-5.05965 0,-0.5151 0.46018,-1.08994 1.02262,-1.27742 0.56245,-0.18747 1.12495,-2.13748 1.25,-4.33332 0.18959,-3.32891 -0.10503,-4.03615 -1.77262,-4.25529 -2.1936,-0.28827 -11.22797,6.3535 -9.44891,6.94653 0.68335,0.22777 1.08516,3.39086 1.05932,8.33913 -0.0352,6.73252 0.1474,7.64493 1.17398,5.86765 0.66859,-1.15749 2.45311,-3.95992 3.96561,-6.22763 z m 21.09526,28.4577 c -2.43214,-2.09204 -2.81396,-3.22364 -3.16119,-9.36874 -0.45853,-8.11484 0.7524,-11.25182 4.3434,-11.25182 2.26236,0 5.16344,2.45987 8.85482,7.50814 1.23404,1.68764 1.5463,1.46985 4.07214,-2.84017 3.72182,-6.3508 7.2884,-6.07851 10.89835,0.83203 l 1.56714,3 0.04,-4.78138 c 0.0281,-3.35513 -0.4074,-4.95309 -1.45996,-5.35699 -2.20945,-0.84785 -1.98238,-5.5303 0.25,-5.15547 1.32397,0.22231 1.77807,-0.43649 1.86529,-2.70616 0.38901,-10.12246 0.25747,-9.65717 2.63471,-9.31955 2.1209,0.30122 2.22977,0.70684 1.89736,7.06955 -0.26909,5.15066 -0.0322,6.77041 1,6.83615 0.74395,0.0474 2.88799,0.15988 4.76452,0.25 3.49175,0.16769 5.7519,2.6593 2.42146,2.66943 -1.00834,0.003 -3.45095,0.45492 -5.42803,1.00412 l -3.5947,0.99855 0.30596,6.73296 c 0.16829,3.70313 0.7762,6.88971 1.35093,7.08129 0.57473,0.19158 0.76081,0.8081 0.4135,1.37004 -0.86944,1.40679 3.66959,-0.0358 5.69774,-1.81082 1.9682,-1.72258 4.92641,-1.802 4.90595,-0.13172 -0.027,2.20397 -1.46532,3.63505 -5.23761,5.21121 -6.9107,2.88748 -9.3022,1.66226 -11.3989,-5.8399 l -1.15183,-4.12131 -0.0982,3.61514 c -0.1117,4.11298 -3.35346,8.88486 -6.0359,8.88486 -2.60873,0 -7.06228,-3.82943 -7.06228,-6.07257 0,-3.49277 -1.73164,-2.0071 -2.37896,2.04102 -0.99085,6.1964 -5.46796,7.78762 -10.27578,3.65212 z m 6.04775,-3.20234 c 1.2076,-3.14696 0.59582,-6.9441 -1.31063,-8.1347 -1.25977,-0.78674 -1.73434,-1.89843 -1.38337,-3.24055 0.29478,-1.12723 0.0495,-2.04297 -0.5472,-2.04297 -3.02406,0 -3.39108,8.36673 -0.5593,12.75 1.70835,2.64435 2.95789,2.86404 3.8005,0.66822 z m 15.15666,-4.83128 c 0.35216,-1.87718 0.3318,-4.38504 -0.0452,-5.57303 -0.65349,-2.05894 -0.77486,-2.07913 -2.59498,-0.43194 -1.85206,1.67608 -2.65611,7.33804 -1.24277,8.75137 1.60267,1.60267 3.29115,0.40844 3.883,-2.7464 z m 73.117,7.7464 c -1.24191,-1.2419 -0.67536,-3.39422 1.08333,-4.11556 2.76806,-1.13534 11.61188,-6.51592 13.11905,-7.98163 2.06749,-2.01061 0.48128,-2.76052 -3.14418,-1.48647 -1.92054,0.6749 -4.84271,0.83746 -7.22487,0.40193 -2.2,-0.40224 -5.35,-0.42913 -7,-0.0598 -8.50295,1.90339 -33.81701,-0.009 -36.57072,-2.76254 -2.94215,-2.94215 3.1254,-4.46339 8.75562,-2.19518 3.13714,1.26383 20.48836,1.27526 29.8151,0.0196 5.44693,-0.7333 5.76956,-0.9061 3.5,-1.87464 -3.34126,-1.42589 -7.37404,-5.86486 -6.54575,-7.20505 0.36508,-0.59072 1.4512,-1.07403 2.4136,-1.07403 1.97749,0 13.45223,6.63344 13.96756,8.07451 0.18448,0.51588 0.69599,0.7151 1.13669,0.44273 0.44071,-0.27236 1.35737,0.17483 2.03704,0.99377 0.67966,0.81894 1.80319,1.489 2.49673,1.489 1.67744,0 2.53238,4.82194 1.32483,7.47223 -0.52869,1.16035 -1.78511,2.54129 -2.79203,3.06875 -14.43178,7.55985 -15.26063,7.90373 -16.372,6.79234 z M 369,208.51252 c -25.17332,-4.37466 -38.20378,-15.93305 -38.11047,-33.8051 0.065,-12.44844 4.43228,-20.3555 16.94812,-30.68489 4.80304,-3.96398 11.39716,-6.20958 18.16235,-6.18513 6.0842,0.022 19.99291,8.09851 19.99878,11.61289 6.7e-4,0.40202 1.23872,1.04062 2.75122,1.41912 10.49029,2.62511 16.3777,8.23132 18.67457,17.78265 1.00232,4.16807 0.81619,19.55993 -0.25304,20.92428 -0.49266,0.62865 -1.19583,2.39823 -1.56258,3.93239 -1.21728,5.09198 -8.70502,11.2717 -17.03709,14.0609 -4.57478,1.53142 -13.66519,1.96936 -19.57186,0.94289 z m 21.12042,-6.21427 c 2.40877,-1.24197 5.65725,-3.45529 7.21886,-4.91851 5.23052,-4.90099 6.13154,-7.72037 6.14675,-19.23366 0.0208,-15.74433 -0.43614,-16.26114 -23.62764,-26.72388 -9.19145,-4.14668 -12.19589,-4.68305 -15.20132,-2.71381 -2.95995,1.93943 -4.07348,0.7364 -2.68897,-2.90513 0.59655,-1.56906 1.75446,-2.58392 2.94813,-2.58392 1.08116,0 2.28726,-0.52023 2.68023,-1.15607 1.17823,-1.90641 -6.25638,-0.24302 -12.51308,2.79963 -7.50853,3.65142 -16.72397,12.92372 -17.62665,17.73539 -0.3759,2.00373 -1.08244,3.88973 -1.57009,4.19112 -0.48765,0.30138 -0.88476,3.55891 -0.88245,7.23895 0.009,13.94143 8.71906,23.25637 26.26574,28.08889 12.85489,3.54037 22.22108,3.59913 28.85049,0.181 z M 359.5,189.99368 c -2.2,-0.55582 -4.5625,-1.1683 -5.25,-1.36107 -0.6875,-0.19277 -1.25,-1.43713 -1.25,-2.76525 0,-2.92914 2.86513,-3.94943 6.21304,-2.21251 4.18152,2.16939 6.75865,2.44995 8.30455,0.90405 1.90695,-1.90695 1.79071,-2.97562 -0.85271,-7.83956 -2.61001,-4.80244 -5.79354,-5.66721 -9.17353,-2.49187 -2.77082,2.60306 -6.09852,2.28682 -5.75013,-0.54644 0.13267,-1.07893 0.41256,-4.88668 0.62197,-8.46169 0.20941,-3.575 0.43836,-6.79494 0.50878,-7.15543 0.0704,-0.3605 3.61553,-0.4166 7.87803,-0.12469 5.15136,0.35279 10.34338,-0.006 15.48431,-1.0692 8.24723,-1.70605 11.05339,-1.38312 10.55315,1.21446 -0.33226,1.72527 -3.01609,2.33297 -19.63603,4.44619 -5.14172,0.65377 -9.27551,1.63868 -9.18622,2.18867 0.0893,0.55 2.47846,1.75505 5.30925,2.67788 5.8931,1.92113 7.21991,3.38039 9.23101,10.1525 1.24585,4.19522 1.25075,5.24037 0.0356,7.59021 -2.67979,5.18214 -6.34368,6.5458 -13.04107,4.85375 z m -30.91677,-41.52434 c -2.21516,-10.58174 -2.67646,-24.8418 -1.03733,-32.06644 0.8169,-3.60058 4.02503,-2.43278 3.69192,1.34391 -0.69655,7.89754 -0.65202,22.57277 0.0841,27.72253 0.68597,4.79876 0.57504,5.75 -0.67055,5.75 -0.82196,0 -1.75114,-1.2355 -2.06818,-2.75 z M 408,143.75519 c 0,-5.36306 1.68939,-23.85873 2.58363,-28.28584 0.24996,-1.2375 0.93415,-2.25 1.52042,-2.25 1.6207,0 0.10174,32.23996 -1.6527,35.07872 C 409.01196,150.62705 408,148.75166 408,143.75519 z m -11.32993,-5.28585 c -1.13325,-1.89732 -2.71697,-12.4176 -2.82263,-18.74999 -0.12839,-7.69463 1.75728,-18.5 3.22848,-18.5 0.55568,0 0.69281,3.94997 0.33847,9.75 -0.41053,6.71981 -0.12507,12.38214 0.9185,18.21924 0.83278,4.65808 1.297,8.82058 1.03161,9.25 -0.61291,0.99171 -2.11026,1.0088 -2.69443,0.0307 z m -46.92384,-0.94721 c -0.24039,-0.44153 -0.0495,-5.07779 0.42423,-10.30278 0.47372,-5.225 0.60477,-11.39123 0.29124,-13.70272 -0.74169,-5.468 0.36748,-11.29728 2.14959,-11.29728 1.12041,0 1.37758,2.65652 1.33108,13.75 -0.0629,15.00089 -0.81849,21.37537 -2.60434,21.97065 -0.63511,0.21171 -1.35142,0.0237 -1.5918,-0.41787 z m 24.90548,-12.05278 c -1.29473,-13.70907 -0.44403,-27.680777 1.64306,-26.98508 0.56896,0.189652 1.18315,4.74369 1.38746,10.28768 0.20163,5.47107 0.4987,12.4224 0.66015,15.4474 0.33653,6.30508 -0.0458,7.99999 -1.80476,7.99999 -0.81162,0 -1.47146,-2.36169 -1.88591,-6.74999 z"
       id="path3281"
       inkscape:connector-curvature="0" />
  </g>
</svg>
