<!-- Made in Mondrian.io -->
<svg id="main" width="1000" height="800" version="1.1" xmlns="http://www.w3.org/2000/svg" xmlns:mondrian="http://mondrian.io/xml" viewbox="0 0 1000 800" enable-background="new 0 0 1000 800" style="width: 1000px; height: 800px; -webkit-transform: scale(1.6006652139172843);">
<ellipse cx="516.3178322529608" cy="376.24088826133703" rx="164.99999999999986" ry="85.4999999999998"  fill="rgba(255, 255, 255, 1)" stroke="rgba(0, 0, 0, 1)" stroke-width="1">
</ellipse>
<path stroke="rgba(0, 0, 0, 1)" fill="rgba(255, 255, 255, 1)" stroke-width="1" d="M515.4505155384234,375.04931161960553 L817.4505155384212,113.04931161960516" >
</path>
<ellipse cx="515.2815484240302" cy="375.29280959954326" rx="3.559151217920075" ry="3.5591512179200713"  fill="rgba(0, 0, 0, 1)" stroke="rgba(0, 0, 0, 1)" stroke-width="1">
</ellipse>
<path fill="rgba(0, 0, 0, 1)" stroke="rgba(0, 0, 0, 1)" stroke-width="1" d="M816.0798056290876,109.22082508844622 C818.0454536637212,109.22082508844652 819.6389568470105,110.82244313651044 819.6389568470078,112.77997630636705 S818.0373387989447,116.33912752428645 816.0798056290887,116.33912752428645 S812.5206544111683,114.73750947622293 812.5206544111683,112.77997630636676 S815.0137215764473,110.86259270409474 816.0798056290887,109.2208250884465z" >
</path>
<path fill="rgba(0, 0, 0, 1)" stroke="rgba(0, 0, 0, 1)" stroke-width="1" d="M950.5460781313685,313.91121703294397 C952.5117261660018,313.9112170329449 954.1052293492888,315.5128350810089 954.1052293492855,317.4703682508654 S952.5036113012249,321.02951946878466 950.5460781313689,321.02951946878466 S946.9869269134484,319.4279014207211 946.9869269134484,317.4703682508649 S948.5885449615126,313.9112170329447 950.5460781313689,313.9112170329447z" >
</path>
<path fill="rgba(0, 0, 0, 1)" stroke="rgba(0, 0, 0, 1)" stroke-width="1" d="M599.5460781313666,298.91121703294283 C601.5117261660029,298.91121703294505 603.1052293492904,300.51283508100886 603.1052293492864,302.47036825086553 S601.5036113012256,306.0295194687849 599.5460781313698,306.0295194687849 S595.9869269134495,304.4279014207214 595.9869269134495,302.47036825086514 S597.5885449615134,298.911217032945 599.5460781313698,298.911217032945z" >
</path>
<path stroke="rgba(0, 0, 0, 1)" fill="rgba(255, 255, 255, 1)" stroke-width="1" d="M598.8491828110405,302.82990763596547 L693.626415809849,34.596601283944736" >
</path>
<path stroke="rgba(0, 0, 0, 1)" fill="rgba(255, 255, 255, 1)" stroke-width="1" d="M816.2372618649003,113.84909411145918 L682.6730232777935,68.2268977007501" >
</path>
<path stroke="rgba(0, 0, 0, 1)" fill="rgba(0, 0, 0, 1)" stroke-width="1" d="M815.8884371874112,114.4363002808318 L656.2427343264982,329.8873594515336" >
</path>
<path stroke="rgba(0, 0, 0, 1)" fill="rgba(0, 0, 0, 1)" stroke-width="1" d="M602.556568762651,303.0442766696096 L757.2574932163678,358.1432360640845" >
</path>
<path stroke="rgba(0, 0, 0, 1)" fill="rgba(0, 0, 0, 1)" stroke-width="1" d="M814.8884371874109,115.26188794208673 L728.7080135191308,346.96007616500555" >
</path>
<path stroke="rgba(0, 0, 0, 1)" fill="rgba(0, 0, 0, 1)" stroke-width="1" d="M585.9571176757494,298.45357314304226 L590.9018960829482,282.20644409082666" >
</path>
<path stroke="rgba(0, 0, 0, 1)" fill="rgba(0, 0, 0, 1)" stroke-width="1" d="M591.0771806773158,282.71126372261324 L604.7511318841725,286.5710304906553" >
</path>
<path stroke="rgba(0, 0, 0, 1)" fill="rgba(0, 0, 0, 1)" stroke-width="1" d="M678.0307646199999,79.15214321393834 L690.8516194558027,83.63944240646939" >
</path>
<path stroke="rgba(0, 0, 0, 1)" fill="rgba(0, 0, 0, 1)" stroke-width="1" d="M690.3306826209499,83.45566233965721 L694.3853138056319,72.36547953525258" >
</path>
<path stroke="rgba(0, 0, 0, 1)" fill="rgba(0, 0, 0, 1)" stroke-width="1" d="M733.481282670545,336.04661940533634 L720.3723459991867,331.43057332903004" >
</path>
<path stroke="rgba(0, 0, 0, 1)" fill="rgba(0, 0, 0, 1)" stroke-width="1" d="M720.1765748278801,332.05815529964013 L716.0963995149973,343.17683425854875" >
</path>
<text x="828.2093848336237" y="129.6557822902478" font-size="24" font-family="Arial" fill="rgba(0, 0, 0, 1)" stroke="rgba(0, 0, 0, 1)"  style="display: block;" stroke-width="1" transform="rotate(0 834.709 117.656) scale(1 1) translate(0 0)">
p</text>
<text x="597.475013084448" y="324.93326663760064" font-size="24" font-family="Arial" fill="rgba(0, 0, 0, 1)" stroke="rgba(0, 0, 0, 1)"  style="display: block;" stroke-width="1" transform="rotate(0 599.975 312.933) scale(1 1) translate(0 0)">
i</text>
<text x="620.7601331692273" y="179.93047338238472" font-size="24" font-family="Arial" fill="rgba(0, 0, 0, 1)" stroke="rgba(0, 0, 0, 1)"  style="display: block;" stroke-width="1" transform="rotate(0 627.26 167.93) scale(1 1) translate(0 0)">
n</text>
<text x="640.6578186977242" y="345.9801241250146" font-size="24" font-family="Arial" fill="rgba(0, 0, 0, 1)" stroke="rgba(0, 0, 0, 1)"  style="display: block;" stroke-width="1" transform="rotate(0 647.158 333.98) scale(1 1) translate(0 0)">
e</text>
<path fill="rgba(0, 0, 0, 1)" stroke="rgba(0, 0, 0, 1)" stroke-width="1" d="M682.3922642189752,65.24754040408655 C684.3579122536091,65.2475404040874 685.9514154368969,66.84915845215116 685.9514154368945,68.80669162200795 S684.3497973888324,72.36584283992732 682.3922642189764,72.36584283992732 S678.833113001056,70.7642247918638 678.833113001056,68.80669162200758 S680.4347310491202,65.24754040408737 682.3922642189764,65.24754040408737z" >
</path>
<text x="663.6989971065256" y="65.73629684945303" font-size="24" font-family="Arial" fill="rgba(0, 0, 0, 1)" stroke="rgba(0, 0, 0, 1)"  style="display: block;" stroke-width="1" transform="rotate(0 669.699 53.736) scale(1 1) translate(0 0)">
s</text>
<text x="686.6671008250099" y="353.23359511874764" font-size="24" font-family="Arial" fill="rgba(0, 0, 0, 1)" stroke="rgba(0, 0, 0, 1)"  style="display: block;" stroke-width="1" transform="rotate(0 690.167 341.234) scale(1 1) translate(0 0)">
t</text>
<text x="718.3472438849867" y="368.2816630722368" font-size="24" font-family="Arial" fill="rgba(0, 0, 0, 1)" stroke="rgba(0, 0, 0, 1)"  style="display: block;" stroke-width="1" transform="rotate(0 726.847 356.282) scale(1 1) translate(0 0)">
s'</text>
<text x="651.6040899317613" y="317.6175319896437" font-size="24" font-family="Arial" fill="rgba(0, 0, 0, 1)" stroke="rgba(0, 0, 0, 1)"  style="display: block;" stroke-width="1" transform="rotate(0 660.604 305.618) scale(1 1) translate(0 0)">
e'</text>
</svg>
