<?xml version="1.0" encoding="UTF-8"?>
<svg xmlns="http://www.w3.org/2000/svg" xmlns:xlink="http://www.w3.org/1999/xlink" fill-opacity="1" color-rendering="auto" color-interpolation="auto" stroke="black" text-rendering="auto" stroke-linecap="square" width="1064" stroke-miterlimit="10" stroke-opacity="1" shape-rendering="auto" fill="black" stroke-dasharray="none" font-weight="normal" stroke-width="1" height="624" font-family="'Dialog'" font-style="normal" stroke-linejoin="miter" font-size="12" stroke-dashoffset="0" image-rendering="auto">
  <!--Generated by ySVG 2.5-->
  <defs id="genericDefs"/>
  <g>
    <defs id="defs1">
      <clipPath clipPathUnits="userSpaceOnUse" id="clipPath1">
        <path d="M0 0 L1064 0 L1064 624 L0 624 L0 0 Z"/>
      </clipPath>
      <clipPath clipPathUnits="userSpaceOnUse" id="clipPath2">
        <path d="M-154 -160 L910 -160 L910 464 L-154 464 L-154 -160 Z"/>
      </clipPath>
    </defs>
    <g fill="white" text-rendering="geometricPrecision" shape-rendering="geometricPrecision" transform="translate(154,160)" stroke="white">
      <rect x="-154" width="1064" height="624" y="-160" clip-path="url(#clipPath2)" stroke="none"/>
    </g>
    <g fill="rgb(204,255,255)" text-rendering="geometricPrecision" shape-rendering="geometricPrecision" transform="matrix(1,0,0,1,154,160)" stroke="rgb(204,255,255)">
      <rect x="-13.875" y="-92.125" clip-path="url(#clipPath2)" width="159" rx="4" ry="4" height="42" stroke="none"/>
    </g>
    <g text-rendering="geometricPrecision" stroke-miterlimit="1.45" shape-rendering="geometricPrecision" font-family="sans-serif" transform="matrix(1,0,0,1,154,160)" stroke-linecap="butt">
      <text x="15.334" xml:space="preserve" y="-66.5898" clip-path="url(#clipPath2)" stroke="none">repo_observer.py</text>
      <rect x="-13.875" y="-92.125" clip-path="url(#clipPath2)" fill="none" width="159" rx="4" ry="4" height="42"/>
    </g>
    <g fill="rgb(204,255,255)" text-rendering="geometricPrecision" shape-rendering="geometricPrecision" transform="matrix(1,0,0,1,154,160)" stroke="rgb(204,255,255)">
      <rect x="291.125" y="-92.125" clip-path="url(#clipPath2)" width="159" rx="4" ry="4" height="42" stroke="none"/>
    </g>
    <g text-rendering="geometricPrecision" stroke-miterlimit="1.45" shape-rendering="geometricPrecision" font-family="sans-serif" transform="matrix(1,0,0,1,154,160)" stroke-linecap="butt">
      <text x="331.3174" xml:space="preserve" y="-66.5898" clip-path="url(#clipPath2)" stroke="none">dispatcher.py</text>
      <rect x="291.125" y="-92.125" clip-path="url(#clipPath2)" fill="none" width="159" rx="4" ry="4" height="42"/>
    </g>
    <g fill="rgb(204,255,255)" text-rendering="geometricPrecision" shape-rendering="geometricPrecision" transform="matrix(1,0,0,1,154,160)" stroke="rgb(204,255,255)">
      <rect x="627.125" y="-92.125" clip-path="url(#clipPath2)" width="159" rx="4" ry="4" height="42" stroke="none"/>
    </g>
    <g text-rendering="geometricPrecision" stroke-miterlimit="1.45" shape-rendering="geometricPrecision" font-family="sans-serif" transform="matrix(1,0,0,1,154,160)" stroke-linecap="butt">
      <text x="664.502" xml:space="preserve" y="-66.5898" clip-path="url(#clipPath2)" stroke="none">test_runner.py</text>
      <rect x="627.125" y="-92.125" clip-path="url(#clipPath2)" fill="none" width="159" rx="4" ry="4" height="42"/>
    </g>
    <g fill="rgb(255,204,0)" text-rendering="geometricPrecision" shape-rendering="geometricPrecision" transform="matrix(1,0,0,1,154,160)" stroke="rgb(255,204,0)">
      <rect x="0.625" y="22.875" clip-path="url(#clipPath2)" width="130" rx="4" ry="4" height="30" stroke="none"/>
    </g>
    <g text-rendering="geometricPrecision" stroke-miterlimit="1.45" shape-rendering="geometricPrecision" font-family="sans-serif" transform="matrix(1,0,0,1,154,160)" stroke-linecap="butt">
      <text x="20.5078" xml:space="preserve" y="42.4102" clip-path="url(#clipPath2)" stroke="none">update_repo.sh</text>
      <rect x="0.625" y="22.875" clip-path="url(#clipPath2)" fill="none" width="130" rx="4" ry="4" height="30"/>
    </g>
    <g fill="rgb(255,204,0)" text-rendering="geometricPrecision" shape-rendering="geometricPrecision" transform="matrix(1,0,0,1,154,160)" stroke="rgb(255,204,0)">
      <rect x="591.1875" y="149.375" clip-path="url(#clipPath2)" width="159" rx="4" ry="4" height="30" stroke="none"/>
    </g>
    <g text-rendering="geometricPrecision" stroke-miterlimit="1.45" shape-rendering="geometricPrecision" font-family="sans-serif" transform="matrix(1,0,0,1,154,160)" stroke-linecap="butt">
      <text x="609.3516" xml:space="preserve" y="168.9102" clip-path="url(#clipPath2)" stroke="none">test_runner_script.sh</text>
      <rect x="591.1875" y="149.375" clip-path="url(#clipPath2)" fill="none" width="159" rx="4" ry="4" height="30"/>
    </g>
    <g fill="rgb(255,204,0)" text-rendering="geometricPrecision" shape-rendering="geometricPrecision" transform="matrix(1,0,0,1,154,160)" stroke="rgb(255,204,0)">
      <rect x="16.125" width="99" height="30" y="104.875" clip-path="url(#clipPath2)" stroke="none"/>
    </g>
    <g text-rendering="geometricPrecision" stroke-miterlimit="1.45" shape-rendering="geometricPrecision" font-family="sans-serif" transform="matrix(1,0,0,1,154,160)" stroke-linecap="butt">
      <text x="26.8564" xml:space="preserve" y="124.4102" clip-path="url(#clipPath2)" stroke="none">New commit?</text>
      <rect fill="none" x="16.125" width="99" height="30" y="104.875" clip-path="url(#clipPath2)"/>
    </g>
    <g fill="rgb(255,204,0)" text-rendering="geometricPrecision" shape-rendering="geometricPrecision" transform="matrix(1,0,0,1,154,160)" stroke="rgb(255,204,0)">
      <rect x="100.625" width="30" height="30" y="167.875" clip-path="url(#clipPath2)" stroke="none"/>
    </g>
    <g text-rendering="geometricPrecision" stroke-miterlimit="1.45" shape-rendering="geometricPrecision" font-family="sans-serif" transform="matrix(1,0,0,1,154,160)" stroke-linecap="butt">
      <text x="105.4854" xml:space="preserve" y="187.4102" clip-path="url(#clipPath2)" stroke="none">Yes</text>
      <rect fill="none" x="100.625" width="30" height="30" y="167.875" clip-path="url(#clipPath2)"/>
    </g>
    <g fill="rgb(255,204,0)" text-rendering="geometricPrecision" shape-rendering="geometricPrecision" transform="matrix(1,0,0,1,154,160)" stroke="rgb(255,204,0)">
      <rect x="-4.875" width="30" height="30" y="167.875" clip-path="url(#clipPath2)" stroke="none"/>
    </g>
    <g text-rendering="geometricPrecision" stroke-miterlimit="1.45" shape-rendering="geometricPrecision" font-family="sans-serif" transform="matrix(1,0,0,1,154,160)" stroke-linecap="butt">
      <text x="2.0068" xml:space="preserve" y="187.4102" clip-path="url(#clipPath2)" stroke="none">No</text>
      <rect fill="none" x="-4.875" width="30" height="30" y="167.875" clip-path="url(#clipPath2)"/>
      <text x="-136.5078" xml:space="preserve" y="108.3438" clip-path="url(#clipPath2)" stroke="none">Wait 5 seconds </text>
      <text x="-122.0615" xml:space="preserve" y="122.4766" clip-path="url(#clipPath2)" stroke="none">and repeat</text>
    </g>
    <g fill="rgb(255,204,0)" text-rendering="geometricPrecision" shape-rendering="geometricPrecision" transform="matrix(1,0,0,1,154,160)" stroke="rgb(255,204,0)">
      <rect x="388.125" y="-8.125" clip-path="url(#clipPath2)" width="130" rx="4" ry="4" height="30" stroke="none"/>
    </g>
    <g text-rendering="geometricPrecision" stroke-miterlimit="1.45" shape-rendering="geometricPrecision" font-family="sans-serif" transform="matrix(1,0,0,1,154,160)" stroke-linecap="butt">
      <text x="398.5859" xml:space="preserve" y="11.4102" clip-path="url(#clipPath2)" stroke="none">runner_checker(...)</text>
      <rect x="388.125" y="-8.125" clip-path="url(#clipPath2)" fill="none" width="130" rx="4" ry="4" height="30"/>
    </g>
    <g fill="rgb(255,204,0)" text-rendering="geometricPrecision" shape-rendering="geometricPrecision" transform="matrix(1,0,0,1,154,160)" stroke="rgb(255,204,0)">
      <rect x="388.125" y="81.875" clip-path="url(#clipPath2)" width="107" rx="4" ry="4" height="30" stroke="none"/>
    </g>
    <g text-rendering="geometricPrecision" stroke-miterlimit="1.45" shape-rendering="geometricPrecision" font-family="sans-serif" transform="matrix(1,0,0,1,154,160)" stroke-linecap="butt">
      <text x="398.1396" xml:space="preserve" y="101.4102" clip-path="url(#clipPath2)" stroke="none">redistribute(...)</text>
      <rect x="388.125" y="81.875" clip-path="url(#clipPath2)" fill="none" width="107" rx="4" ry="4" height="30"/>
      <text fill="red" x="138.8184" xml:space="preserve" y="207.5273" clip-path="url(#clipPath2)" stroke="none">sends 'dispatch'</text>
      <text fill="red" x="143.5439" xml:space="preserve" y="221.6602" clip-path="url(#clipPath2)" stroke="none">message with </text>
      <text fill="red" x="147.4668" xml:space="preserve" y="235.793" clip-path="url(#clipPath2)" stroke="none">commit id</text>
    </g>
    <g fill="rgb(255,204,0)" text-rendering="geometricPrecision" shape-rendering="geometricPrecision" transform="matrix(1,0,0,1,154,160)" stroke="rgb(255,204,0)">
      <rect x="272.3319" y="187.125" clip-path="url(#clipPath2)" width="70" rx="4" ry="4" height="30" stroke="none"/>
    </g>
    <g text-rendering="geometricPrecision" stroke-miterlimit="1.45" shape-rendering="geometricPrecision" font-family="sans-serif" transform="matrix(1,0,0,1,154,160)" stroke-linecap="butt">
      <text x="278.12" xml:space="preserve" y="206.6602" clip-path="url(#clipPath2)" stroke="none">handle(...)</text>
      <rect x="272.3319" y="187.125" clip-path="url(#clipPath2)" fill="none" width="70" rx="4" ry="4" height="30"/>
      <text fill="red" x="434.668" xml:space="preserve" y="227.5273" clip-path="url(#clipPath2)" stroke="none">sends 'runtests'</text>
      <text fill="red" x="440.4424" xml:space="preserve" y="241.6602" clip-path="url(#clipPath2)" stroke="none">message with</text>
      <text fill="red" x="442.4668" xml:space="preserve" y="255.793" clip-path="url(#clipPath2)" stroke="none">commit id</text>
    </g>
    <g fill="rgb(255,204,0)" text-rendering="geometricPrecision" shape-rendering="geometricPrecision" transform="matrix(1,0,0,1,154,160)" stroke="rgb(255,204,0)">
      <rect x="723.875" y="-34.125" clip-path="url(#clipPath2)" width="143.75" rx="4" ry="4" height="30" stroke="none"/>
    </g>
    <g text-rendering="geometricPrecision" stroke-miterlimit="1.45" shape-rendering="geometricPrecision" font-family="sans-serif" transform="matrix(1,0,0,1,154,160)" stroke-linecap="butt">
      <text x="730.1367" xml:space="preserve" y="-14.5898" clip-path="url(#clipPath2)" stroke="none">dispatcher_checker(...)</text>
      <rect x="723.875" y="-34.125" clip-path="url(#clipPath2)" fill="none" width="143.75" rx="4" ry="4" height="30"/>
    </g>
    <g fill="rgb(255,204,0)" text-rendering="geometricPrecision" shape-rendering="geometricPrecision" transform="matrix(1,0,0,1,154,160)" stroke="rgb(255,204,0)">
      <rect x="635.6875" y="81.875" clip-path="url(#clipPath2)" width="70" rx="4" ry="4" height="30" stroke="none"/>
    </g>
    <g text-rendering="geometricPrecision" stroke-miterlimit="1.45" shape-rendering="geometricPrecision" font-family="sans-serif" transform="matrix(1,0,0,1,154,160)" stroke-linecap="butt">
      <text x="641.4756" xml:space="preserve" y="101.4102" clip-path="url(#clipPath2)" stroke="none">handle(...)</text>
      <rect x="635.6875" y="81.875" clip-path="url(#clipPath2)" fill="none" width="70" rx="4" ry="4" height="30"/>
      <text fill="red" x="697.9453" xml:space="preserve" y="234.7041" clip-path="url(#clipPath2)" stroke="none">sends 'results' message with</text>
      <text fill="red" x="691.7783" xml:space="preserve" y="248.8369" clip-path="url(#clipPath2)" stroke="none">commit id, byte length, and</text>
      <text fill="red" x="739.8369" xml:space="preserve" y="262.9697" clip-path="url(#clipPath2)" stroke="none">results output</text>
    </g>
    <g fill="rgb(255,204,0)" text-rendering="geometricPrecision" shape-rendering="geometricPrecision" transform="matrix(1,0,0,1,154,160)" stroke="rgb(255,204,0)">
      <rect x="324.541" y="146.9476" clip-path="url(#clipPath2)" width="92.1681" rx="4" ry="4" height="30" stroke="none"/>
    </g>
    <g text-rendering="geometricPrecision" stroke-miterlimit="1.45" shape-rendering="geometricPrecision" font-family="sans-serif" transform="matrix(1,0,0,1,154,160)" stroke-linecap="butt">
      <text x="341.4131" xml:space="preserve" y="166.4827" clip-path="url(#clipPath2)" stroke="none">handle(...)</text>
      <rect x="324.541" y="146.9476" clip-path="url(#clipPath2)" fill="none" width="92.1681" rx="4" ry="4" height="30"/>
      <text fill="red" x="449.4765" xml:space="preserve" y="159.4163" clip-path="url(#clipPath2)" stroke="none">Stores results</text>
      <text fill="red" x="466.5097" xml:space="preserve" y="173.5491" clip-path="url(#clipPath2)" stroke="none">as a file</text>
    </g>
    <g fill="white" text-rendering="geometricPrecision" shape-rendering="geometricPrecision" transform="matrix(1,0,0,1,154,160)" stroke="white">
      <rect x="185" width="408.9062" height="166.2031" y="282.125" clip-path="url(#clipPath2)" stroke="none"/>
    </g>
    <g text-rendering="geometricPrecision" stroke-miterlimit="1.45" shape-rendering="geometricPrecision" font-family="sans-serif" transform="matrix(1,0,0,1,154,160)" stroke-linecap="butt">
      <text x="366.4287" xml:space="preserve" y="315.0659" clip-path="url(#clipPath2)" stroke="none">Legend:</text>
      <rect fill="none" x="185" width="408.9062" height="166.2031" y="282.125" clip-path="url(#clipPath2)"/>
      <text x="226.3076" xml:space="preserve" y="353.2383" clip-path="url(#clipPath2)" stroke="none">In process action</text>
      <text x="456.8564" xml:space="preserve" y="357.957" clip-path="url(#clipPath2)" stroke="none">socket message</text>
      <text x="446.6553" xml:space="preserve" y="410.8906" clip-path="url(#clipPath2)" stroke="none">thread for handling</text>
      <text x="456.8564" xml:space="preserve" y="425.0234" clip-path="url(#clipPath2)" stroke="none">socket message</text>
      <text x="227.1367" xml:space="preserve" y="413.9844" clip-path="url(#clipPath2)" stroke="none">thread started at</text>
      <text x="233.4092" xml:space="preserve" y="428.1172" clip-path="url(#clipPath2)" stroke="none">server start up</text>
      <path fill="none" d="M65.625 -50.1287 L65.625 22.8783" clip-path="url(#clipPath2)"/>
    </g>
    <g stroke-linecap="butt" transform="matrix(1,0,0,1,154,160)" fill="red" text-rendering="geometricPrecision" shape-rendering="geometricPrecision" stroke-dasharray="6,2" stroke="red" stroke-miterlimit="1.45">
      <path fill="none" d="M670.6875 179.336 L670.6875 209.3018 L894.8319 209.3018 L894.8319 -144.8232 L346.4191 -144.8232 L346.4191 -100.1243" clip-path="url(#clipPath2)"/>
      <path d="M346.4191 -92.1243 L351.4191 -104.1243 L346.4191 -101.1243 L341.4191 -104.1243 Z" clip-path="url(#clipPath2)" stroke="none"/>
      <path fill="none" stroke-dasharray="none" d="M65.625 52.8896 L65.625 104.875" clip-path="url(#clipPath2)" stroke="black"/>
      <path fill="none" stroke-dasharray="none" d="M77.5298 134.875 L103.7202 167.875" clip-path="url(#clipPath2)" stroke="black"/>
      <path fill="none" d="M130.625 182.875 L206.125 182.875 L206.125 -71.125 L206.125 -144.3594 L310.625 -144.3594 L310.625 -100.1096" clip-path="url(#clipPath2)"/>
      <path d="M310.625 -92.1096 L315.625 -104.1096 L310.625 -101.1096 L305.625 -104.1096 Z" clip-path="url(#clipPath2)" stroke="none"/>
      <path fill="none" stroke-dasharray="none" d="M52.4107 134.875 L23.3393 167.875" clip-path="url(#clipPath2)" stroke="black"/>
      <path fill="none" stroke-dasharray="none" d="M-4.875 182.875 L-36.875 182.875 L-36.875 182.875 L-36.875 37.875 L-7.3634 37.875" clip-path="url(#clipPath2)" stroke="black"/>
      <path fill="black" stroke-dasharray="none" d="M0.6366 37.875 L-11.3634 32.875 L-8.3634 37.875 L-11.3634 42.875 Z" clip-path="url(#clipPath2)" stroke="none"/>
    </g>
    <g stroke-linecap="round" transform="matrix(1,0,0,1,154,160)" stroke-dashoffset="2" fill="rgb(102,102,255)" text-rendering="geometricPrecision" shape-rendering="geometricPrecision" stroke-dasharray="0,4" stroke="rgb(102,102,255)" stroke-miterlimit="1.45">
      <path fill="none" d="M388.1482 6.875 L370.625 6.875 L370.625 -50.1396" clip-path="url(#clipPath2)"/>
      <path fill="none" d="M370.625 -50.166 L370.625 96.875 L388.1323 96.875" clip-path="url(#clipPath2)"/>
    </g>
    <g stroke-linecap="butt" transform="matrix(1,0,0,1,154,160)" fill="red" text-rendering="geometricPrecision" shape-rendering="geometricPrecision" stroke-dasharray="6,2" stroke="red" stroke-miterlimit="1.45">
      <path fill="none" d="M307.3319 -50.1183 L307.3319 187.1296" clip-path="url(#clipPath2)"/>
      <path fill="none" d="M342.3304 202.125 L570.125 202.125 L570.125 -62.875 L619.1074 -62.875" clip-path="url(#clipPath2)"/>
      <path d="M627.1074 -62.875 L615.1074 -67.875 L618.1074 -62.875 L615.1074 -57.875 Z" clip-path="url(#clipPath2)" stroke="none"/>
    </g>
    <g stroke-linecap="round" transform="matrix(1,0,0,1,154,160)" stroke-dashoffset="2" fill="rgb(102,102,255)" text-rendering="geometricPrecision" shape-rendering="geometricPrecision" stroke-dasharray="0,4" stroke="rgb(102,102,255)" stroke-miterlimit="1.45">
      <path fill="none" d="M706.625 -50.127 L706.625 -19.125 L723.9017 -19.125" clip-path="url(#clipPath2)"/>
    </g>
    <g stroke-linecap="butt" transform="matrix(1,0,0,1,154,160)" fill="red" text-rendering="geometricPrecision" shape-rendering="geometricPrecision" stroke-dasharray="6,2" stroke="red" stroke-miterlimit="1.45">
      <path fill="none" d="M671.3944 -50.1125 L671.3944 81.9107" clip-path="url(#clipPath2)"/>
      <path fill="none" stroke-dasharray="none" d="M670.6875 111.8713 L670.6875 149.3776" clip-path="url(#clipPath2)" stroke="black"/>
      <path fill="none" d="M346.3944 -50.1028 L346.3944 138.5101 L347.4503 146.9574" clip-path="url(#clipPath2)"/>
      <path fill="none" d="M416.7149 161.9476 L438.5819 161.9476" clip-path="url(#clipPath2)"/>
      <path fill="none" stroke-dasharray="none" d="M215 332.2969 L336.5625 332.2969" clip-path="url(#clipPath2)" stroke="black"/>
      <path fill="none" d="M442.3438 332.2969 L555.9062 332.2969" clip-path="url(#clipPath2)"/>
      <path d="M563.9062 332.2969 L551.9062 327.2969 L554.9062 332.2969 L551.9062 337.2969 Z" clip-path="url(#clipPath2)" stroke="none"/>
      <path fill="none" d="M442.3438 392.2969 L563.9062 392.2969" clip-path="url(#clipPath2)"/>
    </g>
    <g stroke-linecap="round" transform="matrix(1,0,0,1,154,160)" stroke-dashoffset="2" fill="rgb(102,102,255)" text-rendering="geometricPrecision" shape-rendering="geometricPrecision" stroke-dasharray="0,4" stroke="rgb(102,102,255)" stroke-miterlimit="1.45">
      <path fill="none" d="M215 392.2969 L336.5625 392.2969" clip-path="url(#clipPath2)"/>
    </g>
  </g>
</svg>
