<?xml version='1.0' encoding='utf-8'?>
<svg height="144" width="288" xmlns="http://www.w3.org/2000/svg"><text style="font-size: 40px; text-anchor: middle; font-family: Palatino, &quot;URW Palladio R&quot;, serif;" x="144" y="40">Skip ﬁles</text><path d="M 137 50 L 157 50 L 157 70 L 137 70 Z" fill="#ccc" stroke="white" /><text style="font-size: 12px; font-family: Palatino, &quot;URW Palladio R&quot;, serif; text-anchor: middle" x="147" y="63">3</text><path d="M 98 86 L 118 86 L 118 106 L 98 106 Z" fill="#ccc" stroke="white" /><path d="M 147 66 L 108 86 m 4.02699441504 0.182526659039 l -4.02699441504 -0.182526659039 l 2.20172782465 -3.37674319221" fill="none" stroke="#000" /><text style="font-size: 12px; font-family: Palatino, &quot;URW Palladio R&quot;, serif; text-anchor: middle" x="108" y="99">3</text><path d="M 59 122 L 79 122 L 79 142 L 59 142 Z" fill="#ccc" stroke="white" /><path d="M 108 102 L 69 122 m 4.02699441504 0.182526659039 l -4.02699441504 -0.182526659039 l 2.20172782465 -3.37674319221" fill="none" stroke="#000" /><text style="font-size: 12px; font-family: Palatino, &quot;URW Palladio R&quot;, serif; text-anchor: middle" x="69" y="135">3</text><path d="M 79 122 L 99 122 L 99 142 L 79 142 Z" fill="#ccc" stroke="white" /><text style="font-size: 12px; font-family: Palatino, &quot;URW Palladio R&quot;, serif; text-anchor: middle" x="89" y="135">5</text><path d="M 118 86 L 138 86 L 138 106 L 118 106 Z" fill="#ccc" stroke="white" /><text style="font-size: 12px; font-family: Palatino, &quot;URW Palladio R&quot;, serif; text-anchor: middle" x="128" y="99">6</text><path d="M 99 122 L 119 122 L 119 142 L 99 142 Z" fill="#ccc" stroke="white" /><path d="M 128 102 L 109 122 m 3.86062198389 -1.15999909375 l -3.86062198389 1.15999909375 l 0.960624249513 -3.91499694141" fill="none" stroke="#000" /><text style="font-size: 12px; font-family: Palatino, &quot;URW Palladio R&quot;, serif; text-anchor: middle" x="109" y="135">6</text><path d="M 119 122 L 139 122 L 139 142 L 119 142 Z" fill="#ccc" stroke="white" /><text style="font-size: 12px; font-family: Palatino, &quot;URW Palladio R&quot;, serif; text-anchor: middle" x="129" y="135">10</text><path d="M 139 122 L 159 122 L 159 142 L 139 142 Z" fill="#ccc" stroke="white" /><text style="font-size: 12px; font-family: Palatino, &quot;URW Palladio R&quot;, serif; text-anchor: middle" x="149" y="135">11</text><path d="M 138 86 L 158 86 L 158 106 L 138 106 Z" fill="#ccc" stroke="white" /><text style="font-size: 12px; font-family: Palatino, &quot;URW Palladio R&quot;, serif; text-anchor: middle" x="148" y="99">15</text><path d="M 159 122 L 179 122 L 179 142 L 159 142 Z" fill="#ccc" stroke="white" /><path d="M 148 102 L 169 122 m -1.15517241379 -3.86206896552 l 1.15517241379 3.86206896552 l -3.91379310345 -0.965517241379" fill="none" stroke="#000" /><text style="font-size: 12px; font-family: Palatino, &quot;URW Palladio R&quot;, serif; text-anchor: middle" x="169" y="135">15</text><path d="M 157 50 L 177 50 L 177 70 L 157 70 Z" fill="#ccc" stroke="white" /><text style="font-size: 12px; font-family: Palatino, &quot;URW Palladio R&quot;, serif; text-anchor: middle" x="167" y="63">16</text><path d="M 158 86 L 178 86 L 178 106 L 158 106 Z" fill="#ccc" stroke="white" /><path d="M 167 66 L 168 86 m 1.82272301845 -3.59550841996 l -1.82272301845 3.59550841996 l -2.17228633706 -3.39575795218" fill="none" stroke="#000" /><text style="font-size: 12px; font-family: Palatino, &quot;URW Palladio R&quot;, serif; text-anchor: middle" x="168" y="99">16</text><path d="M 179 122 L 199 122 L 199 142 L 179 142 Z" fill="#ccc" stroke="white" /><path d="M 168 102 L 189 122 m -1.15517241379 -3.86206896552 l 1.15517241379 3.86206896552 l -3.91379310345 -0.965517241379" fill="none" stroke="#000" /><text style="font-size: 12px; font-family: Palatino, &quot;URW Palladio R&quot;, serif; text-anchor: middle" x="189" y="135">16</text><path d="M 199 122 L 219 122 L 219 142 L 199 142 Z" fill="#ccc" stroke="white" /><text style="font-size: 12px; font-family: Palatino, &quot;URW Palladio R&quot;, serif; text-anchor: middle" x="209" y="135">22</text><path d="M 178 86 L 198 86 L 198 106 L 178 106 Z" fill="#ccc" stroke="white" /><text style="font-size: 12px; font-family: Palatino, &quot;URW Palladio R&quot;, serif; text-anchor: middle" x="188" y="99">25</text><path d="M 219 122 L 239 122 L 239 142 L 219 142 Z" fill="#ccc" stroke="white" /><path d="M 188 102 L 229 122 m -2.26884229571 -3.33201960336 l 2.26884229571 3.33201960336 l -4.0225368238 0.263054179213" fill="none" stroke="#000" /><text style="font-size: 12px; font-family: Palatino, &quot;URW Palladio R&quot;, serif; text-anchor: middle" x="229" y="135">25</text><path d="M 239 122 L 259 122 L 259 142 L 239 142 Z" fill="#ccc" stroke="white" /><text style="font-size: 12px; font-family: Palatino, &quot;URW Palladio R&quot;, serif; text-anchor: middle" x="249" y="135">25</text></svg>
